<mxfile host="app.diagrams.net" modified="2023-09-23T21:16:16.742Z" agent="Mozilla/5.0 (Windows NT 10.0; Win64; x64) AppleWebKit/537.36 (KHTML, like Gecko) Chrome/116.0.0.0 Safari/537.36" etag="pbGPrzR3NvmI-2YbfKPA" version="21.8.1" type="github">
  <diagram name="Page-1" id="040aUrxdlvUDqBB6iWDP">
    <mxGraphModel dx="2284" dy="782" grid="1" gridSize="10" guides="1" tooltips="1" connect="1" arrows="1" fold="1" page="1" pageScale="1" pageWidth="850" pageHeight="1100" math="0" shadow="0">
      <root>
        <mxCell id="0" />
        <mxCell id="1" parent="0" />
        <mxCell id="17F5Kk3aHDw3mL9hK2ya-15" value="" style="edgeStyle=orthogonalEdgeStyle;rounded=0;orthogonalLoop=1;jettySize=auto;html=1;" parent="1" source="17F5Kk3aHDw3mL9hK2ya-1" target="17F5Kk3aHDw3mL9hK2ya-2" edge="1">
          <mxGeometry relative="1" as="geometry" />
        </mxCell>
        <mxCell id="17F5Kk3aHDw3mL9hK2ya-1" value="EC2" style="outlineConnect=0;dashed=0;verticalLabelPosition=bottom;verticalAlign=top;align=center;html=1;shape=mxgraph.aws3.ec2;fillColor=#F58534;gradientColor=none;labelPosition=center;" parent="1" vertex="1">
          <mxGeometry x="60" y="320" width="76.5" height="93" as="geometry" />
        </mxCell>
        <mxCell id="17F5Kk3aHDw3mL9hK2ya-16" value="" style="edgeStyle=orthogonalEdgeStyle;rounded=0;orthogonalLoop=1;jettySize=auto;html=1;" parent="1" source="17F5Kk3aHDw3mL9hK2ya-2" target="17F5Kk3aHDw3mL9hK2ya-4" edge="1">
          <mxGeometry relative="1" as="geometry" />
        </mxCell>
        <mxCell id="17F5Kk3aHDw3mL9hK2ya-2" value="S3" style="outlineConnect=0;dashed=0;verticalLabelPosition=bottom;verticalAlign=top;align=center;html=1;shape=mxgraph.aws3.s3;fillColor=#E05243;gradientColor=none;labelPosition=center;" parent="1" vertex="1">
          <mxGeometry x="190" y="320" width="76.5" height="93" as="geometry" />
        </mxCell>
        <mxCell id="17F5Kk3aHDw3mL9hK2ya-13" value="" style="edgeStyle=orthogonalEdgeStyle;rounded=0;orthogonalLoop=1;jettySize=auto;html=1;" parent="1" source="17F5Kk3aHDw3mL9hK2ya-3" target="17F5Kk3aHDw3mL9hK2ya-1" edge="1">
          <mxGeometry relative="1" as="geometry" />
        </mxCell>
        <mxCell id="17F5Kk3aHDw3mL9hK2ya-3" value="GITHUB" style="shape=image;verticalLabelPosition=top;labelBackgroundColor=default;verticalAlign=bottom;aspect=fixed;imageAspect=0;image=data:image/png,iVBORw0KGgoAAAANSUhEUgAAAgAAAAIACAYAAAD0eNT6AAAgAElEQVR4Aeydi5LjRpJse++ORt0taff//3JtRmppHru6digdtncWWHwBJEA4zFiRSCQSmR4RHoEEyPrwe7ciUASeisC//vWvw/WVOZj//d///Z0Pm/If//jH7//3f/+XzZ5aZiyMKceY487BOUdlHmu5CBSBxyLw4bGX69WKQBFIBDKQU/7nP/95OPzrr79ms9/Zz+MEWIIodc/8MAYTE8bOWKbGzmQ87sRo260IFIHnIdAE4HnY98pF4IhA3hFnQKVBBkrK//73vw/nedd97OQJBcfAmMZxMhwTGudEXc71CUPuJYtAEfgTgSYANYUi8GQEfvvtt8MICKIG9zGYUv/ly5fjSD2Hds/8MCDHQpkxnkoGcn55znFSLRSBIvBQBJoAPBTuXqwITCPAnbLBnxbs512zZ1FnuzXcSTsGxnRqvK4CMAfa5b7zqiwCReDxCDQBeDzmvWIR+AYBA6IB1GV1G+Wdv204ZiJgu2fIHEOOLcfMuJyTbZzzM8bcaxaBIvAHAk0AaglFYEUIGFDHAGngZKgfPnz4/f/9v/93kJSf/XEswphjpc65ODfbVRaBIvBcBJoAPBf/Xr0IHF6Ky6BOQP3uu++Ogf0vf/nLscyx//iP/zgmAJSf+XHcOSbqcszMxSRB6aODqr8IFIHnIdAE4HnY98oPQCDvOsc707y87bxb5Rh1BipetMvzc99zPD5K+jBQIgmWGeCp2/MHLMAkMRL3EUv3E3N04cZx9+lDvXLcc7LO85T2z/577WxfWQS2jEATgC1rr2O/GAGCAs+hJfXxGTXH8/vrBhEuQODwPOoNJBzLdrTxDteA/p//+Z+HwKa0vvJ00iNWSrECW/UwYo9O1AVtTunI31NIw9EWOA8bsZ9s03IReEUEmgC8olY7pyMCBgLvKDlAWZKX/Km3Dul5Bpy8M6Rt3sUb9F32NnBZTwDzmHe6Hz9+fJMsGOj2JMEILJiz2IgVdWIoph6z3tWDo8LjFxPVXSYH6pj26p660T44rg1k3y0XgVdCoAnAK2mzc3mDQBK+d4bWGdT9Trr17iszEGWgouyxMTBRb9DK5f7vv/++y/8TjzzACGzEVMzEUJyRYG0CYHuTh2yHMahD5ahjbYB6Ar5JA+fa9o1RtaIIvAgCTQBeRJGdxmkEfv755yOZS+pJ9Jzp19So/+tf/3r4GFwMKgZ5jnvMQOU+gYlglIGLY55rO2QGrazfU3kKgxErsKTdGPQTe3UylRyoT3WurrUY67UNJDbTrQi8OgJNAF5dw53fEQHv9nK5l2CbQXsqII2BJ9tnsDYIWUe7DEhZ/vTp0zGJsP1epViIFzhYRiYuI8ankoPxPPpAt2N7jUOb0EasrywCr4xAE4BX1m7ndkAgyd1gYoAwoCi5qyRQ8LHOpenPnz8fg1EmCrRz37YGMQOPx7PeMTimPUoxUI54Zb3Ypm5sL3bqyLbqhnNcMVCvyryGCYA2UxcqAq+MQBOAV9Zu53ZY+ic4SPJIg7F13hUaRNgfy9Z5bi5T24/Hsq3lqWBje6+1R5kYiKNYgZ3HxdF924KZuvCYbZW0yTLt3Lcf6iwrfSRQNyoCr4pAE4BX1eyG5uVb2hKud2E8m7XsMaZlGWk539im7B3gHoNq53z6K4a3YIMtjfalHWp/SuuR2K7vF6Qd0zb7o223IvAMBJoAPAP1XvOIQBKnlePyK/u2g1D9vn4mCBC7d4Au9TYJmDcQ3hI8t36ONqRNaWPYagZ4bNJgj61O2bD2rdSm3a8sAo9GoAnAoxHv9b5BwK9nQZgQqndKkqmSk/zeth2cCi6S9KnjrW9icK0NvGdT2uNoo9quUvs2OdD28/yWi8AjEWgC8Ei0e61JBP7nf/7nUG/w92taEqcncTyJ27sz6nhuC0n7PNg7tmzfcgP/LTagLWFb2JjvCNBX2iD72rA2qw1r0x7X5m1XWQSegUATgGeg3mt+g4B3RJJlHuRZKcQK8fLxBbEk4R9//PGbxECSH8nZ+somApfawCkbSpvTFrFN7ZT+p57za+PafNp6y0Xg0Qg0AXg04r3eNwh4R6Tk4N///vc3b+9zFwa5jsTt29yZGFBn/di++w3+19qA9pSBnj6mbAwbdcXA9jzrx6bdtHWl9ZVF4NEINAF4NOK93hsEfBYKUUKs/Da8JMp+Bn5J16V+jmdb9vspBkvbQNqctqhtcu20Wdr6/w588U+bf+MMrSgCD0SgCcADwe6l3iLAXZBk6h2T5A2xWge5SqoSbdYl6dqf/VQ2IbjXBrQpbVB7S1sc67BdkwOvrz3TX1cA3vJBax6LQBOAx+K9yatx1wJZSVjvPdv02Pis03oA8C4oyVSCrGyw3pMN4APpE5T1Fd8T0Jesd/9w4p9/PKaf6mPZpuUiMCLQBGBEpPvfIODby0k6lCWakaTyZBOGrIPcvSvybmhPhN+5NsFJG9AH9In0FcpTPqQv4nv6oXWcY1nfHfvsfhEQgSYAIlF5EgHvLiCW/C7+eJcBGVknMdmppMdvtbP86dKp9ZUNjHu1AXwBn/D/GICDW/oRvsV+bvobdfimwV+fzbYtF4ERga+WNh7pfhH4c7neu3wB4c7il19+cfcQ9CEcySdJSVL3Tsd9ZB8BNOinPeyxPOUD6Ss6mT6Fj+Fr7nMcXxzv9vHZbGM/lUUgEWgCkGi0/AYB7zggHssSyyg9mXq/lufSJuTuv32V6JPorKtsUrAnGxh9IH1E38GX9LX0McrWK/FRE3H91XMqi8CIQBOAEZHuf4MAxCK5cMCvLympy7sPyFsS881p6rLsV6L2RPSdaxOb92wgfSJ9xbI+pXOmz+mLStqMfut5lUUgEWgCkGi0PIkAZMKSoncW2Qgi8m4fguOX01zWRHqHo0wS7HsADYppD3ssT/mAvoJMX8pfJcTnMgnQJ/HRLv+LRuU5BJoAnENo58fHZUQIxheMJCdJTOIyEUDahjLHvaPJ+j0Sf+fc5Ecb0BfwjfQh6zPwe1yfow1bvoMjZY2+a31lERCBJgAisWM5dWcPHBKI0pePkpAkscoGtNrA82wAn2SlzuRcn1WO9HbK58d23X9tBJoAvLZ+L5odZCBR5LIiS4n5tj8E77NI7jxy6b/k/zzyL/b7xR4fdKVA39Tp8V182E3fxtebAIjKvmUTgH3r/xD48yU/4UiCGAMMhCPpjMe6v99gVN0/R/en/HHKl63D5036ravcHwJNAPan88kZ+wM/kILLiEifNfLs0bJvLPs8v8T/HOIv7sVdH9Qn8dF8TyB92YCvr08SQSt3hUATgF2p++1k87mhKwFIvoPsXT6EIqlQZyLQANQAVBtYhw3gk6f8FV9O34YFSAyse8sKrdkLAk0A9qLpd+YJEfisEELPZ/sGfmUG/74MuA7ybxDerx7SB/VNfVWZPg0N9GuC75Dhzg41AdiZwsfp+mLQVBDxpSJ/kczlxqm2rdtvEKru16N7fVSf1YdHHcED+v7ICd3fDwJNAPaj68mZumwIQXjHQJ3lJA5JheOn2mT7ltcTGKqL19QFfqo/omN9NPVtG+rSrzmv274RaAKwcf37tr7P83zphxd+XNa3jqma9SdBtPyawaF6rV4vtYHkBspyBhziy4PWyTVyz8YpdNfDbwLwAurXIZ2KgZ99nZcy7fhAClN3CpeSRds1sNQGXscG5AL5QR5J7khOkUtsV7ldBJoAbFd3x5HjqDqryQB3+tabqUvaODzLf+5Xvg6ZV5fV5bU2ABeYBHAuG5whf7hqKLdYfySgFjaLQBOAzaruj4G7LMeeWbp1So4Z8P2+sPvXkkXbN8DUBl7LBuSC5AZpUQ5RyjEct862ldtDoAnA9nT2ZsRk5rkCQPaOo1I/Rda+CKScatO61yL56rP6nLIBOUA5toFD4BI4JVcALL8ho1ZsCoEmAJtS19vB4og646+//npsgCPzveD8rXD2dXSW/Pze8Oj03W+wqA3swwbgAJf/4QY5gVUBuMN9iUWOSd7xWOX2EGgCsD2dvRkxzuhzfg66pDeSuMH/1PGxfff3EQSq5+pZTpAjRpvguFuuBlhXuU0EmgBsU2/HUftMjiQAp9WRldTxbM99f+XPzH509O43GNQG9mUDcoHcAFf4PgC2IHcoXXGUe45k1MLmEGgCsHKVeWev5I1cHdCh44g4qtk7juovgpXM90Xm1Xf1PbcNwCUGfzlmDP5wkt8WkKuU8lTl+hBoArA+nbwZkW/bZuD3pT+zd+Xczt/+GlBqA7WBtAG5BskmF1GWo+SsN2TWilUh0ARgVeqYHgxOhZORdWfmnU7pizxm6izhma1nu5ZL5rWB2sClNgCH+DhAbpFr7EPWkp/gKhMBj1WuE4EmAOvUy3FUBvx0KAO7jpnL/fx3sNzXSStL+rWB2sCtNgCn5H8elGPkIDjJTa6Su6yvXB8CTQDWp5M3I0qHMvs2G9ehrXcfObbJYy03GNQGagPnbGCKQ0ausQ31Bn056w2ZtWJVCDQBWJU63g7my5cvh8rffvvt8KIfTkb27SoA+1PlU/8G9JzD93iDQm2gNpA2IJfAMwb/sQwneQyuYpO73rJaa9aCQBOAtWjinXHgjJ8/f37zq34GfjJws3DaWq9MZ2655F4bqA1cagNyiJLzkm+y3j7lqncorYdWgkATgJUo4tQwdDik39OlbLbtG7keS4fMpEDnrCz51wZqA5faQHKI3CLXyD1yEX16zPNO8Vrr14FAE4AH6MHvwyq5pN+ZpcxzM56Z5XGcSSe61FnbrsReG6gNrMkG5DBpFo6D63xXYORCOVDpeZXLINAEYBlcj71qyL4Uw/djfUZGWUfI783iwDrOmpy5Y2lwqQ3UBq61AblMUpTr4D7LcKJluVLu9LzK+RFoAjA/pm96NMhz1++PZig9xkn8ow2cy6U1l9Oudbi2L0nXBmoDa7ABOUxO858JwXdyn1yIdGXUY2/ItBWzItAEYFY4L+vsb3/72zER4AyMXUdR+rxtDU7cMTSY1AZqA7fagFwmtyEzwBP44cRuj0egCcDCmLushZGPS1ru61j5Mg1OY9bs8cqScG2gNrAlG4DDTAAYd3Ic1CsHSsPsuyIgd3qscn4EmgDMj+lkjz7X4qBlDB2n4Du0PifL7/hvydE71gam2kBt4JQNkATAbRyH6ywb7OXE5MdJIm3lrAg0AZgVzunONHKzW40dZziVHWf9KadqfQm3NlAbWLsNJJflCoD1sCacCE+6IiBnTjNqa+dCoAnAXEie6Mdgz2HLUw7rcj/ZsY4x1a51JfzaQG1gazYAp7nKKdeNc0iOHMsn6LXVdyLQBOBOADndN1sJ8JapH99oJbvF6HWE0QG6X2KvDdQG9mgDcqIrAL4kKIfKs95EJc/OQOG77aIJwJ2q12A1TLrLl1esZ0mLzBdD9/lX7/RL9nsk+865dq8NyIFwItwIR7r8L3ee4lS5904K3/XpTQBmUL8/7GO2imFqxJYxeI0dIz+1DKZjVJYkawO1gT3YQPKhHAl/GuCzLMfKuTPQ9667aAIws/rNWl3Conuc2CUuDZy6LO/B0TvHBrTaQG0gbSA50LJcKTXLpXKr9ZX3I9AE4E4MvdPHOC0rNXTffNWwra8sGdYGagO1ga82IEfKmWDDJqciTQSsu5PCd316E4A71Y8xkqHmchVdks26zJ9ln/9///33h5WBOv9X5y8WxaI2sD8bkAvlRnjT1QDLcKoBH66Fc00E7qTwXZ/eBOBO9WuUvPiHQWKcGq/ZLKSmcVO23gShpLc/0qvOq/PawNf/eyIngskUV8KpcCsc60vWcu+dFL7r05sA3Kl+s1ClQd0lLH//GsP++PHj8a4/yyWCBoPaQG1grzaQXJhluVMuhVvZ5FrlnRS+69ObAFygfr9zisFZ5jTfSKU83vm7CrBXp+68G9BqA7WBOWwALnWFwJUAaTs5GG42KUietm3lWwSaALzF5JsaAjubhkXZJSgb8p+sWLYiUx1XAOZwgPZRIq0N1Ab2agO5AkAZrh3/e2Byslwtd8vTlW8RaALwFpM3NX7n1GwTw8rnT2SlGilOahKwV4ftvBusagO1gTltIDkVroVz3eBig70cLWfbpnIagSYA07icrDW79LupGDnGqLH73MolK+srS4i1gdpAbeB6G5BL5VYwlHMharlYbj5J3j3wBoEmAG8g+bbCO32My7JSZ87slDr2801W21Ve7/zFrJjVBvZtA3DpFMdqFzC2nIw0EbDuW0bvXiLQBCDRmChjTO99z9/sFAPNDBXj9JiGWrlvIqv+q//awHU2MHIoHGsywDHKPg4w4PM4oL8TMBHMJqqaAEyAklUa1anv+WuEOHbe9WukdfjrHL54Fa/aQG0gbSC5VI6lDu41QSAJIPBzw+YLgXJ38nnL3yLQBOBbPN7suZyk1Bjzpb801kwINM483nLJrTZQG6gNXGYDcqgBfwo3uZg2bHK18g2pt+KIQBOA338/frcfg8nvj/pGKfUYXgZ3f75yyiBbd5lzF6fiVBuoDdxrAyYJ9OPLgXK3kojX3wk4xv1jYfcJgF8fyWzRJSRQMvjz7EnjchkqDe9eI+75JcLaQG2gNnC9DfDrgawCuDoLhmwZ/EdO57jcf2i80z+7TwDQu98Z1WAwjHx+pFMS8A3+yDQ421Re78DFrJjVBmoDt9jA1E2Yq7PGdLjcYC/Hy/m22atsAjBo3pUAv1uKUaaRUSbw+9zpFqPtOSW72kBtoDZwvw3Ix6zO8pGrXa2F3uVyuX2g/F3v7j4B8E4f47Cs1EE1JveVTQLud2CxrCyWtYHawL02IFcr6Y9NTkeaCFi35wxg9wkAxvDe9/wxII2JZf8s32usPb+EVxuoDdQG7rMB7vrhZu/+wZNVWrhamUkAjwP6OwF/pD27TwDMAt/7nn8aFsblft8BuM9xS3zFrzZQG7jHBnwniz7k4/yXwnI1yQCBnxs+XwiU+7sCsGMEXA5SakQu72tA7mNolNPw7jHgnlsCrA3UBmoDt9sAHD3+CiscPXI33M4m1yt3HP5+380KQCqb8pj9kR26vI/hWK5j3u6Yxa7Y1QZqA8+2AbjcZMCVgAz6xIIxPuTxVy6/fALgG6Au+/g1EJRqmf8tzR09WeO4AvBs4+31S6C1gdpAbeB2G3D1Fm539RbOzxiQZWOFsePQ8EX/vHwCMKU3An+uAJAVaiQ4mklAne52pyt2xa42UBtYiw0kp8P1cL4bscCbQev2Il8+AfDFD5Z4zOhc7uGnITFQjEFD9VmSS0bWV5bMagO1gdrA9mxALpfb0aGc70+/GxP8dgD7xI5X314+AVCBUwmAb4tmdohxsN+X/Lbn6CXn6qw2UBsYbQAun+J42hED2MYEwLjx6vLlEwAVazbnioBGYnaIgWSGyHGP2bay5FIbqA3UBrZjAyOHw/EmA3ks7/iNFcaOV04CXj4BQHlfvnw56NBHADzzUflIDSLv+q2rs2/H2aur6qo2UBsYbSC5XI6nLmOA74QZI4wZrxz8mdvLJwAq1KwORfv8RwNIg8mEYOp4tm25ZFMbqA3UBtZrA3J4BvzUl8eJCSYBxgpjxysnAS+XAKg8lm9yCUflonzfAlX5aRAtr9eZq5vqpjZQG5jTBogBBH+/BUawN1ZQzjhibHmlhOAlEoBffvnlqJMxa0NpJgIo2uUgFT6nMbWvklNtoDZQG9iWDRgLiA3ECAP/GPAztmTMOQafDRY2nwCoJCU64IccUFZmcumUvAjSu/9tOWnqr+XqrjZQG5jLBogF4wvgxnJiCLHEHwei3lijtO0W5cskAGZnY2bG3X8aitkeda4G5PGWSyy1gdpAbWAfNpAxIGMD+nfl2MBubDHWNAEQmSdLszMURsaGYiirQJSZy/+U+f5nVwH24eQl8+q5NlAbmLIBYgCxgJjAcR8DUGYzjhBTiC3GFGPOk0Pf3Zff/AqAy/zKRARloeBU6pQRtK7kUBuoDdQGagPYgDeLxA4DfsYVY40yj22tvPkEAMBVUt75//bbb9/c4bu8Q7ZHQmBiUKev09cGagO1gX3aQMYCYgN2YKygTJwglhBj+Ljsb8zZWsAfx/syCcCoEJTnsk4qVEefqvNY5T7JoHqv3msD+7OBqVhgnTEkA6fJQNZttbz5BMAXMlyO4b86oTQytzrz/py5Oq/OawO1gTltgFhCTPE/BhprjD1bDf6Me/MJAJNAES7NIFF+E4CSwJwk0L5qT7WBfdqAsSRjzCsE/5dIAHgbM5dkXLrBWV2+qePu03Gr9+q9NlAbuMcGMoYQW9iMN6/wTYCXWAFAKWRnKmuU9xhAzy2B1AZqA7WBfdrAGEvYdyXgkA1s/M/mEwCVoaJYrhl/1anOu0/nrd6r99pAbWAOG8hfjyXWeNO58fj/Gu8AoASUnEpiuSYfB8xhBO2jZFIbqA3UBvZjAxlH8uZy64Hf8W9+BYDnMThkBnu/z1lH3Y+jVtfVdW2gNrCUDWRMMdYQe7a+bT4BICvzLU2U76OAsbyUYbTfkk5toDZQG3hNGzgVT4w7TQAegABvW+bXLvweJrKO94fjaZDgYYZKWQPmeG75BivYms2K7Xfffffm65T8apZ9mnTZP/Xff//98RyPU5/vZNiHkuP9FIO92gD+ow8p05f1I/0RnKw7Jf11OzHlXDZ9G1+f4lPa8F13zkuftZ/Kt34qpkowBNvk1wP4K/2zqRUAXvj78uXLEUodZs+GqaNmQKUssUAStGHD8THMNFbLSttIEr5kCcaJt/1Sb+CnbPLBGPi4TxvLEleOec867NzfEuveMMkAz9z1a8r6nX4zYkM9voSkLZsB3uQev8en2fR1pfWHg7//fvjpW67vdcfrdf+rvYo32BGb5EuxXLtcfQKQmZSGym8z1zi/GqHkAQl8/vz5eEctYWCEv/766ze2KK5gCp65SQzWadRK6iUBn41lMM+EgHbqCimxmQzYT+VXfRaL/WCBH+AX+Kr+qj+nHXhMf1PShg0/xm/13fRVjlt/aPxnkOccOXXkAfbz+i2ftkn0J4eKJzjLsWK+Rrn6BCCBFFwdxGCyZ+OEGMRDHMAlEwENj7sBiMC7gyQFlv40Ytr7s5dibh+eYx/8j2yDP6RkGadwXJR/+umnEkofd9QG3rEB/FZOywRZn8K/KeNPGVzG5D79dyzj4/q2Pq00adDHTTrklcq3SYD6guvY5MvUj/iuUa4+AdAoAQ/D5IMhCvzejRIyAAOkZTHBgTFInF6nNgkAT4jDeg2Xeo036wz4tLdsO3REW6+L/PTp02E/yYt6CYyyCUKe1/Jbkikmr43JlO+ic/1ZPzGAEMAN4umjHMcXTeQ55nF9lTbW6fucI89S53GvX/t73/6MRWAnpupCna1Vrj4BEDgNXmfAKDNLrpH+YaQao8vw4jfKvGuwjONLBLTHmA324/nqg/o8x3aQBwmIJJJ3E1mu3t4nl+Lz2vjoIybK+gvcxjHqDcj4YvqaAcc6pT6IHAOSfenzeZxn2B7nXK5X+3vf/jIGuQqQ3Ji6WGN59QlAGiTGqFNQ1ln2bqRggiFKIomHRofDJ5aShQFeSXuOQQzZnuO2sd4+OIc67jKsy5c1HQ/6cozV3fvEImaV+8IJ//D5vr6rv7E/+qHH8D3K6Xfs88GX9Uv7SEk5EwH2f/75Z0QTgHce2eCb8hh6g4epc1M37q9Rfh3tGkf355hc0gJcM65cCdgzSWqAYoAhio0EoGolAZ19PK7BulxI+7GNfWUfljlmkkA569lnjDrJWHb8lfsKeHvXt3yGH+O3ch3+gu/pQ1nmWN5lciz9Tj+nnWV9mrZu2SfX4UNd9r13/Vwyf/lWXYJv6lG81yhXkQBopBrnuE89isi7f5e4L1HQq7cxCfDu2vmuxeAgJ3WrLtUfY3fcJgc6kvPwjoh956rT2aayicOzbEBb1DYZhzarLWPbHsferact57NlsM+A/kw/ZkyM1bEzD8eufBbua7muXIZe5bDkO/Q3xjT3n6lbrv30BECjJ+sEtATGOhTNs22NUIcT7LUYwrPGkY4IJn4DYA0kkncT6pZxqfcRsyQY9K3Oqff9hjFhGPvofpOBR9mAHKRNYqPWYbuWGQ9lfdVgYXLsEj6krG8onx4k/lwGh3f1x0fhu/brqF9jEvjIU8Szkf+ybg36fXoCMGXcBn6PaQSALdBInc7je5eSCzisaXP5cTR49yFBdGviwvh1LMo6lPpV79nGY5UN/o+0AW1Qm/Ta2izH+eiblDMB1k/1BfdZQvYu0rpnSeeENAFgvs4pj++tDA4Zk7QHcHDLoG/dWuTXUT5xRGnoYxkgE1TKNb6vJI9DggcfsEJSx+Yd9xNVe7w0pMeGfvP5WDoHiQLE6VxS78yJj6RDOY/vjXg6368+8EwssEFskTFgm9rp1JiOzjAU8i4R38j9oenDd/FPPvgkczXYOeepee6tDr2Lj3OXm8DO7VTZ48+QT08AzHz9Wgog8OMybIJ5ytgMBrar/Jqhp7E9w7C8pvp1X3JD5l1Ovr2sLeBUo2Oh4+p9HcGv/vZVD6NNEgCwXbjLDV8gydUnkPqpq2S0tc52nv8M6U2EAQ2dmwRU/6e5KGMWejOmUZbf1qDf1SQAAKOxWfblCsHE8LJcA/yDgHRISQjiYZNIDjtP/CO5afgMRV27MjAOL4lS0nF+7Jsc1Aa+BqFi8XgsRjvERvXHtOkpOx8fBeAT+mz6SvbzjDKJOraVKwCZEOzd7tQ3sSnL4EIMk+vQXZabAPxpzeOSMI4xPkNLI9P4cL6s32PZhMjgiAGC3xThPIM8DP4SG2Ogjn2P6Qi5IuBYbaNumadvWFtX+fjAV8y/xRyb1AfBRjvXftl3lcvv2FOHH2D/GRj0XeWhsyf/YU45P/bl4T3bgjFoxIJ964hl6DI5MGPeM1X79BUAnUCpI2hggpjGR9lMa8/G59w1QjHSoAys7j9LYgqJm0kAACAASURBVPgSXTpBEpxl9Z/Eybitd85I55t1LX8bmIrHsniMNpi2qr+Ntk29d/jatfae/pFl+3q0dAzI+ty0LRGL0g4sZxKA3tB14vloXU5d7+kJAIDwMVjhLA3u04Y2ReYGf46J25Sit1yHTeg42olzncKEOnFRuqLkigltTC5P9ZH16cw6uNexT+tPjY129mPbHIePvGhjn47Bedg+921zSjqevKZ4cE6WbeM5p/rMesaSWI5jc96ck3O0D64pLuO8beN4HB/t8jrW24/nnZM5bq8tHvavPNUXY2PTNrFVg/6W/c6x63tiJR7un8Kl9V95HBvRJrATMBVXcX6GfHoCkJMmQ/rhhx+Oy/r+Q5ka0ldDOoVFkheYeoeR+G6xLKkqcRrulpA4FHhA/szfICFBKcegIFbKU5hSPwYD6uiXc/N8Ahv7tueaBiWDXranH/Ztk2PgXI4h6c/xOz+vocxzp8pe137EhfPtgzqPO7apvsY6z1cyRvuhjrJzGc9Vb1nvWMWMNvRBG/rjuMeoY5+Pc6LOsmPK/sey11Ny3PFnX/bJ/Gir3kxOtUl8TFtVbtHvHLN+xjyd84hh90/zc8YwYpsrPuL7bPn0BAAncfkLMHQ6ya7Gddq4wEaccE6eQ/qWPVi+CgGNz8tyXhAUTmWQ0F4kf3CR3LOcjuk5p6QYEwTG3yrIYMH5XMtg4Ri8vsfZz/Gyz+fcuw2cQ9/I7PPUuKmXtO2bc8Fs3KhzTLb13Pf6d045tvfa07fztZ3zyTlZFkPmbR3ncY4f+0E3Yq/OPPae1Bbo3zln2THYB9fN5dwpX5t6n2XEfGv72IgYIMU661p+y9fYolipc2Je8pj1j5ZPTwCYMEDgUBiPTn6NA+/Z6MQLDCAmtimCf7RhzX09vzZov5noUOedGDgYpMFD25DY3Rev3J8q08doiwQEr2E/OLiBhLq8S2UfPdlXjmu8psFGwuA4dXy8exjnLibvydEmwAu/40M5t7FtHjtVdkyM0fE6N+fi3KxPmdikTdMmsQRj+ksM0cXYNzrLNnmtLE+1SVvxuPoGmxEv5w42BP7cP4XXluoNVMwN3SQ+iWXLb4M/mMgf2jU+IqbPtoNVJAA4DCBJFAKl89Wwpg1LXMDN4JMGNd4557GtlHWUDEquGFFnfZKyuEhUOiD1BJPct+0pqS0iLdtW+1RST5up63oO0vbojbZsBg2l81GHSufr/iV6zCCfj4YSP/rxGNcW90v6dyzj2Kx3Ls5Nydz1eTFJnCirK9om/rZXel7qKdt7/JTkOplo5HU9RyycT+KnTdJGHK7B0L7XJglW6pGxiQVSO8+6lr/lau1TW8TesS194Nn6XkUCAAgChAG5BFlj+taYTuGRdz+Qk59nG9dc1zcwQazeBdM3BEudhAwJW+Z44iVZ6ZAkTGlz2fa9slhnsDD54rzs0+CGPeem8zt+5pDBwgDiXJiXdUr642tl7L/3yXMdA+0TR8rZL+3Y99z3+verbZ6j5Fw255D9T81bTA4n/f77kQPEcMQ2MVcX6uY9/Y3H0Jd9aRvaim0dE3PJeTGn1FviqM167talegQjdJJ2Lk6Vp/k6YxrYrWV7egKA42tMowPrkDWs04YldmDFx03Sdn+rUuJRMg+I1iDCvqRMOUmZegOI8hZbAleCwnt95DHHgWTzDopxO1YDh/u0+/vf//7HCXEOFRk8CSy5fzzhRIFruhmsubbX51ju24b6PNc+TknGlEEvx+j8OTfn6NwdC/teM8+xL3WXWFun5Bi6uoc77B+ZY3QczMN66hi/4+aYtqo8hdlW6v3dArhanJFyT9a1/C1Xj3ZojAO7Mel9hj08PQFg0hpNZt46occqvzWsEQ+DP6QDKSVZPcOw5rpmzsOy5AvpGjxwJo9Tb5lxgAl4SVhg5RLviOO47znWY5ee6zWS/B2P8/fYWO8caEebMVjQ9xhYPMc+vcY5OfZNe8c+lu1r6hyPTUnH5BhpQx1zyGtRT9+2Zz/PYV+ssk3WU/YYfaMbdDJyxqg7dThKzpWoPSfnzzXyehJ36sc55FyzzJi3vDl/sRMn9ytP83PaZca4NdjD4glAOkHeIWBQHKvhnDaca7Ahs5Q4NawkMev2KBMHiV5sJTLq01Gtp51LzNoyMvvcI6ZrmjO6SN2kziinLtGxNpD1tKPerfoVia/vp1gjVsh+7sMAuzW5At+Mkdq0uC8hF08AHPSUQxGwakD3GRCEZlYJ1hjTFNbqYW9SLFhSNkHC5sAsA752yPPgxBO8OM9+0lm9E9wbpmuab+pA3aArdc1Y1bfP+tU1cvQfzvPxgzpf03yfNRYCk3iQOJlEJZYtX8/laafqVpzdX1I+LAFI5+Q5I/sSbQ3nesMRs3TEzCanDGtJQ9pC3zqWy7UjhswB3LBNg8CIo/v2sYV5v/oY1YW6cb7uo0t06j56T7+hvX1oI/axd/m3v/3tAIF3o0gT58RQX6q8jsuJgdgmMVHbY/9R28MSACbHR0NigjWW64xlCi+dkKx83CS1sX5v+zqW8x73rcc2Pab0GEFE2x2P2abyeQioE3Rk8uZoPIZUhx5T2ubUvvV7lAYk+UQe6g3c/fwNlm7yz2iLHl9Cfr36Er3/2adOp2Q5SSOqvM+IfI5JVs4dDkui+Sb3gmrdRNeSVtoeA5fULNsO6bIy5xBM3Fc6ce8o3a98PAKjDtQRMpM29lPHo/4Zuc9ftRXbP35W67miyVRKONv3Ysrf9/G3+I22pw0ubQkPSQAy88apmDQvrXn3KgiVtxkT3zFNjDGakRiXNqQ19w8WOJSYGCSS4KcczroMFjpqnrvmue9hbOpC3TBndaYOE4es81xtYrSVPG+vZf3G+Zenb+PpKdyIgX41UFvEPh+1CvCQBADDwYicIED4HGkKlNZdb2BgDOmJsYSm0+5VigfzT6dKfHA42yEzmWI/j9OPAcRz9ortGuatDtQJYxp1xjF0aluPO/60hbQR29tuj1Js4BaTKm/c/Dps+fp6vk7MjIXa7phwLWl3iycA42ScbJ8f3Wc0GpB4irNSZ13SeLbQdwaGJDHGzr6EL245J455nHr6oh0y+81zWn48AupD3TiCUX/Wq2uOp5+M9lEdi9hbKe/IQ5W387mxEExz006zbu7ywxIAiRRDccI+v67x3G48YjcaRslrRKT7RaAI3ILAFJfIO5X3cbcx0JiIfoyVL5EA5IRGY3Epaazv/vVGNTr2lNOObbpfBIpAETiHwBSXlKOv5+gpzKZiIPowCTinm3uPL74CkBMZJ2v2MwVM664zsNEQppx2bNP9IlAEisA5BKa4pPx8HT+fwmuMgcRIt4yd1s0tF08ANJ4EYOp3u/N4y9cb12gY4j7Wd78IFIEicA0CU1xSjr6eo09hxrP/8YVK9DOF+zV6u6TtQxIAJsLkyXZ8eYRMZ1wROAVQ688b26jsRxjPeM3uF4Ei8HoITHFJOfk8J1+CUcZBYqMrAmA+hfvc1rV4AsCA/Z4jgFD2hQcnewlQbfO+wY2G8QjjGa/Z/SJQBF4PgSkuKR+/z8eX4mMMJCaOcfIRlvSQBAAw+OUo7/7ZNwm4FKi2e9/gRmOZctqxTfeLQBEoAucQmOKS8vH7fHwNPhkLiZH+yuI5vcxxfPEEIIFwyZ+sx3Ieb/l2oxqNYcppxzbdLwJFoAicQ2CKS8rVt3P1iB2x0JWAMS6e0829x+9OADCO/L5i/rAGv6Q1Trb78xlOYjkawpTTjm26XwSKQBE4h8AUlyT3tLwMp4Nr/hplxlZi7pRezulyPH53AmCHfGXBRMCvL9QwljOMEVv1oJzDOOyrsggUgf0iMMUlI/90fzmux/KMqcRYy3NY5GwJAIPxP0YxSLIVlzVqHMsZh9iOxjDltGOb7heBIlAEziEwxSXyTuWy3E4MJZZ6c22MPaezS4/fnQCwRJFLE1yYfZ5ljM8zaizLGcuo8CmnHdt0vwgUgSJwDoEpLimXL8flia1xdCrG5uOBczo8dfzuBCA7zv9Dn5NoeXljST1QnnLasU33i0ARKALnEJjiknL68pyeGKujjLHW3SPvTgDG5xEuVTD4PgJ4nJGMRjDltGOb7heBIlAEziEwxSUZnFpejueNoejI2Kq+xthr/TXy7gRgXJrg/0c3+C9nEKecbVT6lNOObbpfBIpAETiHwBSXnOKh1s/P/SYBxNbcxtibxy4t350AaBxIyxpB/sCBdZXzGwiYjpu6GOu7XwSKQBG4BoEpLimPL8PjI64ZQ9FZxtkpvVyjV9q+jRzX9vD7779nZsIEzFj6EuBjjMSfkFR1ZoZK6yuLQBEoAtcgIIcoOReOl3PGgNX9eTnfGGpMVXcZc627Rc6SAHhhXlDAABx0jWFeY5jCU6z5+UiMwudE6bDqp7IIFIEicC0CcgncAsf4U7VyzxQvtW5e7hfr1b4E+Ouvv/7+3//938df/mPpIn/7vwYxr0Eknj/88MMB99Gx58oSx367XwSKwD4QmOIQuEfOSR5qeX6OJ4bmYwBiLLGWbRUvATIQv4+oAeSArauc3zgSUzJEtq4AHGDonyJQBGZCIFcA6NK70eSflpfl94yp6MCYe6+K734EYIaYBqCBKPNYy/Mais+Gvvvuu+MvMWoUOq77lUWgCBSBaxAYOYRfooNr4HG5p5w+L6cnnsZQpcfQobH3Gn2Obe9OALzjZGB9MWQ5Q1Dxo8QwcEQ++VaoehkV3v0iUASKwDUIJJfAMfLNGJRGbur+/PHAGIv+Ui/X6DPb3p0A0BmZSCr748ePh30zxTzW8vxGIaYsE5mxZzKQCm+5CBSBInANAnIJ3JJL0fJO5XKcbgw1por1HHf/2MAsCQCZoNmgy0LuO+DKZYwkcabsiyEmAtc4etsWgSJQBEYE5BK4ZeSb8voyvJ64innGVurm2M4mAGR/LDWYBRpguDiGQT0D841/MhYH6nJFTqbleQ3GDBFcwRt9oCP1NYeRtI8iUAT2i0BySnJ6ck95fV5eF0/xJqaKN7GWffRicoZ1Gpupz5j9nuWeTQDGkzOwWHawJgFdJlrGGMR5lBjJp0+f3nwVUP2MOux+ESgCReASBEYOgXvgGgPTyEXdX4b7janGWHBmS/1k+RLd0ubiBCBfOOB7iGYeDITlCA0iB2jGUqNYxijE1RUXjcJM8FIjaLsiUASKwHsIyClTnGNd5fw8nzHU2Eqs9bEAOiMW+9sA7Gesfk+nHDubABjozS5yaYGvhBh8HFAagceyruX5jYTsEEMRbxSrvs4ZQI8XgSJQBN5DQC6Bu+EYuMY70vL5/HyemMrpWWes5RgxmA0dGfjVl7H7Pd2eTQDyZH98gAtR/umnn47P/l0BYFBTg84JtLyM0WgY6kxDcL+yCBSBInANAskh8LYcUw5fhsNP4Zpx1VjLigAxmFhs8DdGX6rjixKAzC7smCWhcbAM0mfReUc6tuv+fMbjspASbNk0CPVVWQSKQBG4BQG5RN6Wa5TWV87H62JJTPUxALF16ubaxzPqFn1l4mb9lDybANCZFzC78DuIuRRkVsLAXR5qtji/QWgYKf3nHEqOqbMppbeuCBSBInApAnmzJ8cok4danp/vjaHGVDA21vroFz0ak43R6MzE7T09n00APJmMIrOKVLZZiZkKx7KcbVue10g0EHWgoaSu1GFlESgCReBaBOASeFtukWvknnL6vJw+4pmx1LI6sK06HeO09afkRQmALxMYVMgsxgE4kMpljWEKX3WB1ClRuHo7pfzWF4EiUATeQ0AOgXfgluSaKS5q3eP5H72wuerrnb/x+j39XpQA0AGdagwZaKrwxys8Mdchs45MnfpuRaAIFIF7EYBLvPtPnpninjze8mNiA7px81sBSutPybMJgEE/O3AZogp+jILfwxkn1BHJBPPFnNRZy0WgCBSBWxCQf+AWVxiTdzxe+Zx4oE7UrTFbaf2UPJsA5EksKfz9738/BpyprLBG8BwjMCnDSXFOl4VSfy0XgSJQBK5FAC6BU7y5kGvK9c/h+sTd4E8d2yXL/qn/ixMA3y70a37edeZgWn68QeiUYK8x8N1Q9i/JANMYWi4CRaAIJAJwCFwip8gx1CX3sN/PczBQJ+iNR/V8I4D3AS5JBs4mAPkTg1xAJTcBeI6yxT9lOuKPP/541FE6cstFoAgUgVsQkGuSW5JzPF75vJjgarz6vfTm72wC4BuFX758OWQXBH6Df43geQp/z9lYorvUADSYyiJQBIrAFAJwSZf918n13v0bD9AfsdrfBZjSZ9adTQBonMHE4K/0wpXPMRD1kIZwydJPGkHLRaAIFIH3EIBT5Hi5Ru6xvvI5MQB9sAKAzMDvY/v39Ho2AXAFgE5QsL8A1bv/xyob5ep4Lvekw2kAOKo6y8TtPSPosSJQBIrAFAJyCJwCtxhsknsoy0nJU2Ob7i8TM4zFxmb1aBxwf0penQCkgr1wFbuMYsHVn31MrCmTfZuBf/78+ZCc/fLLLwcddwVgytRbVwSKwK0IyClwDLwk58hDIz8ldzU+LBcfxD3jsjqeJQGgM7JAOlORBh4ual3lckr2+RvK1vHAe8QfXemoZu4aQ2URKAJF4BYE5BK5Jbk+OQhuMiDJWdm25fljhPgbk8GYWK3Ozun77AoAHdAhis1lHu9Mq9T5lZqYouDRmcDeRMAMHD3xzEcnZf9SIzhnJD1eBIrAPhFIDoFbfK4s78BVcNEYD+Asg1PyWcvzxwuwF2tiNLH6krt/LPpsAoDS6SwvUCXOr8RTmJrZpcPZFp2g7NFJ0VcmAvukrs66CBSBORAwBiSnwDlwj3FBTkqekrs8Vrls3Mgb9EtjwNkEAEWrbBSOElX6eGdaBS+rYPA10/aFj7zrR+l82JRzEED7KAJFYL8IyCXJLyQDcA+cJBfJTY0Dy8cBMTYGG5OJ0d4U5o3hKes9mwBwor8Clcp2AJXLKxvlurQz4p2K9b9BUZeJQbZpuQgUgSJwKQIGetsnx1A38hHBB64yII3Hu79cvDARA2Ni9iXb2QQAA6BDMg2XdJCuBlShyykUbMVcnMHdrA/d8GHz2Zz7lyi/bYpAESgClyIgtyTXUGd8GGPCyF1yWOW8MQPcxRqZ8eGcbg8JgAqlsRmeyz4omE5VbiYCXfKZV5FTjkEmLfZK9MGmQ55Tco8XgSJQBJZAQA4yAMlRyK4CLB8fjMEZ+MGefXVjLDe2YwfG/A8+J8hfEPL3/60zMKlcXzawvnJ5RZvVoQN0plKXcOr2WQSKQBG4FAG4yPfEiAVyVePC8nFBjI3Jxmjq2YzhxvSsQ2eHViYBv/322xud0xGZnJlGXqCKXl7B4J3PdtCFW5MAkagsAkXgGQgkB+UdP5yVscJAVTlvzMgYLN7EanUx2oQx3ph/fAeACpVp1sCSgUs7dpgK9FjWtTyvgsVTRaNQlTcqt/tFoAgUgWcgICfBV3KV3FW5TEwA16kYbKzmmMv+xnRXa7SR4yMAK5AmAig1swovOHXRKnkZJX/8+PH4pi26QSc6W+qs5SJQBIrAsxBIXjIWJHdZV7lMnCAmG5dztd5YYUxP++DYNwmALw34ggCNU2Fc4NOnT8e3Pr1gtml5GQXjTCgsFZl6SsW2XASKQBF4BALJQd5dNvAvEwOmYisx2BUXYvMYk7UB9WSMp/6QAFBAcS4RZEMu6MsFZhVZ51LD1MBaN58RoFQ2dUQZRWYycGjQP0WgCBSBByIAB2VQkaPGQNR4MF88SCyNwcZpjhmrrVM/xnZ0ZOz4YCWNLKtUlag00+AiWc4BtTyvosXeZznoyGWdB/p5L1UEikAROIkAnGT8gKuIA3JXY8K8MWHEM2OxZbFH5s0iOsqE4PASoNnAGFjGC3V/GUWSsZmtgTHlSxV40iN7oAgUgSKwMAIG/VM3kL5DlvwGx1nfmLJMTElc0wSM8cb8QwLg3SUNUaT/V95sIjtreV6FuYQjrvn8TKfJjA0d5RJOKrflIlAEisCjESCYuPSfCQGcJodRlusaV+aNIcaOKQnWbMR04wj7xvzj1wCzkvJUZ61bRnH58oZOwgoAZbd0LOvM5tyvLAJFoAg8EoHkIAOMXMU4iBlwWd7YWNd4skw8mcJVmzDwu/+B7A0lqkj2+dBJl2mWV5ABX6W5j8ShUi8qTekx9yuLQBEoAo9EYIqDiB9sHJPXkHJb1rW8bIwxhhvX1Qu6OcT50VhUXpW1rGI0fBTk3b7P/TlGPbowY3OJjboppxv12P0iUASKwKMQMKBwPblK7oLP/Po4ZX/ZtDHmMTEGnNmM7WkTh0cALtmoMBqiqCpoeQWNGLPvc7NUlOXxpxytrywCRaAIPAMBb0jkphwDMcWvpRFT5LaxzH4/82NgfDH4G+ON+YdHACgsD6CkVFQVM79iElOfkSFdskEnKM1s+tQ/c0hna7kIFIEi8EgEDP7yFNeWq6xjP1c34b6+CLhsTMn4Yjw36BvrDzf6KEwlesCTR6VZX7ms8nAOMzb0Y1n9UKcyKXcrAkWgCDwLgeQiOUrOUhIzCETe4DS2LBtDjNGJM/ahfoz5x28BeIBlHE4a39q0w8p5FecSDdKsWKd5lkP3ukWgCBSBORGA04gdcFxyXuPJvPFkCk9iOTHdRzTGevT7gR2/vnHMCvo85qHPo1COToEC2VJJczpi+yoCRaAIPBIBuczgBNflnan1lcsmA+jcGE/MRy/HFQANgkqV43JNFbOsYsAXrMmOeW5mQqZOKotAESgCW0YAToPb4LjGleXjiTFbrInpJmJpR4f/BeAv/6GkvBO1k8rlFIaCTLjA2Y0lM5dsrKssAkWgCGwJATgsH2kaS+A8g5N1lcvFGbAltntzSczn3Y1jxGFpgIMZjJoMLKsQDR7M/dYFzo1iVNSWnL1jLQJFoAiMCMBlvigI58F1GWfkwcr5403GcDBHFz4GQE8fcoeva7BEo3Kaoc2vkNHIUZAvXKIQlsnMmJWjQ3W/CBSBIrAFBOQwpF8LhAPhvAxOIy92f57YYwwnphPb/YomtkPs/+Ays3ecAv/58+eHvgjndfcsdWizZR3G+soiUASKwJYQkMPkNMa+Z45/xtwzloO/sZ7Yf3gEoJJ4SSCfSbsS8IxB7+maZmlkZDqKidmWnL1jLQJFoAiMCMhlcNvhrrP/Z+ZhSZAxHEmc8UVAY/4hATAjyKCbP9+Y9S3PszQjjiiFpTADv86j07hfWQSKQBHYIgIjl8F1cJ43PnJh5byxRTzHWI4NHWO+Ozyj4QRe0PCZtB1ULqOYxBU94BhkaCrH52dbdPqOuQgUgSIgh8FpcJs3Osl9LS8fX4jpvmiOTowx33wLwOUCX874r//6r4ctVezVCFAKeKsQKMMXM7OuVFIEikAR2BoCcpicxvipg/MMSHvl/kfM2xhuTCfGpy4OvwSoUTEg3hREdnlm+axMA/B5jM6iHJfO1FNlESgCRWALCMhhcpoSzpP/KpeNNcZyY7t2w4rMYQVAJfl/mpXjs4Mqan5FjXf/LpGppMoiUASKwCsgkNxGIuBdaePK/HFFTI3hxnQkmzH/+AgAhXgSsspZTimJM+VUyGHnz2UyVwasqywCRaAIbAkBOMy7fsd9DD79nzPfxNwxLsy1P8by1Mfhp4BRjAkAywXjksFcA2k/b5MKsPdFGTJkns+gC+t0msoiUASKwBYR8KUzuM1VAPmtMeFtTJgTE5f9M66bAKCLw+0nismLkjGMWUMeb3k+pekQynRwnSTrWi4CRaAIbAWBKQ6T6w4BqKsA38TeJWLrVDz3RcBjAkCG4LcAXAFwf4lB7aVPsWS+mVSJ7VYcueMsAkWgCMyNALwoF44cmdy5l3gx9zzFVizZp3xMAPxlIC5sowxUcw9oj/2JK3P/4YcfjjhT360IFIEisFcE5EYk3Gh8sN79yvtWnY3p4oq9Hb8FwDINANuIMplCv6d5H+jgKODgmfhq0Ht1/M67CBSBIiAPKuHI8a7VY5XXxyNiuHiCnzHIRzMffNOcgwQrGxTs68Gewkw8VQQvZXz69OmQcPkyRmmgCBSBIrBHBHz5HE6EG/PGU+6c4tXWXR+fwNMbUmzt8FsMFFRCAo4ibFywrwc7MfM7mNaJ8x4dvnMuAkWgCCQC8KKcKEeOnGl95XWxiBg+tQLgzefhJUC+lwmwLvmTjeVJBf060KfwEttMrNIJWi4CRaAI7BEB+DIDlVw5xaOtuz4WEXNcdRbb428xsAxAtuXdfgb+LBf464EXM0FH+stMZLzdikARKAJ7R8C7f7gxuVL+rLw99mQMt0ysJ+YfHwGMAPvjAWN9969XhMYN+JY/f/58WHHZu+N3/kWgCBQB4oqcCEcaqOTLxp3r486I2VRMx/IOjwBoLNjKsYPu366ExNRy3b4IFIEiUAT+QCBj0Fhu7Lk99iR2xh4lyDcBeMAvUQl4GnYdvwgUgSJQBP5AILlxLGcQa/n2ZMA4pAT5JgBNAMpBRaAIFIGnIjAGfYNUA/7tAX/ETkyVKLwJQBOApzp+L14EikARaAIwX6AfA7/7Bn4lVtcEoAlA2acIFIEi8FQEmgA0ATi8GW+28krSjCuN/Kne1osXgSJQBFaEQHLjWH6lWPDMuRiHlKi/KwBdAVgRDXQoRaAI7BGBMegbpJ4ZMF/t2mKqxM6aADQB2CPfdM5FoAisCIEmAE96BPBqWc5W5uP/Y16RD3YoRaAIFIGHIwAXboW3X3Ccy2ceLwjaxQbrLzDx84v+3LL/iOGf//znw52tFywCRaAIrAUBOdB/SJc8KXfuOX48YO5NAJYG2Z+29Dprcb6OowgUgSKwFgTkR+TImXms5Vlj9qydXXxnvBcl+m8tU+Jw/jemtThfx1EEikAReAYCcmFyJPHB/b3EiifNswnA0sC79O+Slk72r3/9y2JlESgCRWB3CCQHwsNypJy5NDe3/we8Bb9nkH/66afDqohfvUD6xeXx8QAAIABJREFUAqDvAuzO6zvhIlAEisDvv/8uB8KJyZHEDLlzz/HjAXPvCsADQP7948ePx/91/b//+7+/8+lWBIpAEdg7AvIhPPyXv/zlwJWP4ORe4xD7mwAsbQh//etfv3k3Aoc3892783f+RaAI7BsBuTB5eOTMPNbyrDF71s6+CXRV1Fdsc3kLd9fo9+36nX0RKAJ7R0AuTI5s7PgaOxbG4mEX2nVykMaNw2v0e3f+zr8IFIF9IyAXJkcuHPR2HYsGbJsADIAsYhxp3Li7Rr9v1+/si0AR2DsCcmFy5CM4udc4xP4mAI8whDRuHF6j37vzd/5FoAjsGwG5MDnyEZzcazQBWORuf8qw0rhxd41+367f2ReBIrB3BOTC5MgpDm3dIjfri3T6sMC6FaNI48bhNfq9O3/nXwSKwL4RkAuTI7fC6y8wziYAj1BiGjfurtHv2/U7+yJQBPaOgFyYHPkITu41+gjgYSsVadw4vEa/d+fv/ItAEdg3AnJhcmSD88NuzB92oYcF2zUZj//VKn/bGnf354D37fqdfREoAntHQC6Ut+VKudP6ykVi9SKd7jLYnzJQDRn56dOnBv+9M17nXwSKwDcIkATAjcmVp/i09bPG7Fk7a+Cf+OdKGrWGi+X/4x//+MYBulMEikAR2CMCcqH8iBw5M4+1PGvMnrWzJgBDApCGzNIWz7nc8l9hWldZBIpAEdgLAsmBcKPL/00CHhaXH3ah3SYHmQSYvf7zn//ci493nkWgCBSBkwjAhfKicoozPVY5a8yetbM3ity7sjKj5V9d+qYr3tAk4CQn9EARKAI7QEAOJE7AjXCkMSO507rK2eP17B0eFVhl/WHU4mDwx7D5H9jdikARKAJ7RwAuNNjLkXBmluXQytnj9ewdNgEY3gMwq/3uu++OGS5O7/df904AnX8RKAL7REAOJLDDk3Ck5Qb7h8Tmh1xk10lBZrKW9+nunXURKAJF4C0CBHu5cSw3EVg0Ri/a+a4Dv4Y7ZdhvXaA1RaAIFIF9IjAG/eRMebRykVi9SKcN/PEYII3Z8j7dvLMuAkWgCLxFoAnA0+Lw0y68myTBoJ9G/tYFWlMEikAR2CcCyY1jmf1+FsNgsY6rtD8NtwnAPkmtsy4CReAyBMagn5zZ4L9ojF608yYBJ15uucwt2qoIFIEi8PoINAF4Whx+2oV3kxxkNmv59V26MywCRaAIXIZAE4CnxeGnXbgJwGW+0VZFoAgUgZdGoAnA0+Lw0y68iwTAX7jyOZY/CsR+tyJQBIrA3hGY4kbqRu60XeWsMXvWznYR1K81wL/+9a8HXAj+mQD054D3Tn2dfxHYNwJwoHya/ChneqxysTi9WMdHxe5Zed9///0x+IsDdRi4P4O5bwro7ItAEdgrAnAgXChPwpHeJGWd3Fk5e7yevcMG/onvrZrRplHv1ek77yJQBIqACBjU5Ua50vrKRWP0op03Gfjw4fgPLjBk/8/1x48f+x8BZYDKIlAEdokAjwDgwuRGyv5ToAb/xePz4hdoEvDnbwGML7Xs0uM76SJQBIpAIJBBHo70q9JZ3/JicXqxjhv4J95kJdvFyPn0HYBggRaLQBHYHQJwoHzoSoDBnnrLlYvF6cU6rvLip4DJal3+x5gpU9etCBSBIrBXBE7xYlcBHhaXv37fMjOwKuAxCsDx/Trgb7/9tlce6LyLQBHYAQJynJzXO/vl40zGcmN8rK78MYDPnz8f79h9ASMaHY9VYfMqTJ//8uWLxd//+c9/Hso6yfFAC0WgCBSBDSEgh8lpDD25rvFk3ngy4mkMN6ZzPGP9ByrGpWnqODEzh7Hj7s+jOBxCJ8nyv//97w25eYdaBIpAEZhGQC6b4rnGkXniyCkcieEmAVNx/pAA+MMLZAk09oQmAMsqB6Wx/etf/zpKnEWH6UuC04TS2iJQBLaBgBwmryXXMYNTgav188QeY7hx3ZUAY/4hAbBRgt4fY5hHAYnpVBkn0EnSpf/xj3/kbstFoAgUgU0iMMVlct4UJ7Zu3tgzFcuPMR9FsEOG8NNPPx0zslwuqELmVUjiCfbogMz4b3/729HBdZBjRQtFoAgUgQ0ikFwGx8F1xp3kwpaXiTMZy4nxxHrjzgeWZlzyRwEsEZgdxDLBMTGokuZVEhjnszGXyPDzLG/Q7zvkIlAEdo5AcliW4bzGl3ljyVRsFmNiusv/tCPmE/sPD6HHwD+1ZDDVeevmUSAcwTKZmXK+Mbtz/uj0i0AReAEE5DQ4zkcCjR/zxI9LcDSmZyKAWX1AIblEkBnDJR23zf1K1L/RhUmALwJ6rLIIFIEisEUE5LLkN+bR2HF/7LgEw6kVfWI++jiuAGQSYKdTdR6rnFd5OITBf4tO3jEXgSJQBM4hIMc1fswbP07hORXDrUNXH3guQ4V3/nTkcsGpTls/v/J8PobESfK9gHNO1eNFoAgUgbUiAJfBaclxjSHzx5D3MM2YTqwn5qOP4wpAvghohpBJwXud99h9yvzxxx8PL2T4bAxHpuzS2Vodu+MqAkWgCLyHABw2xWtwXuPGfXHjEvyM4cZ0zjHWo7cPvJxBZTbItwUvuUjb3K9IlEGWjMOQMXcF4D1a6bEiUAS2goB8Brf1EcD9seKWeJsx3Vh/iP0o5fvvvz8+AjBj4CJ50i0X7TnnlU025ksaODT6UP76669b8fGOswgUgSLwBgE4LDmNBsQFOM870caJ83HiVowyhhvbkcR89HJ4BPDLL78clKJCaGD51gv3vMuUajYGXj4re+NFrSgCRaAIbBwB320yNiT3WVd5Wdy4BidiucHfuE7MZzskABRQRiqEE7wzveZibXu9AsEa7N18WcbM2frKIlAEisCWEJDD5DTGDtcZkBovro8X12BGDE+sjfPa0DEBoFMb+sZgJgTXXLRtL1dqJlk+H1OqpMoiUASKwJYRkNOQxofkPusqL48dl2BlDDemG+O1pcMPAbFjZmCn7OfzA+sr51UQePL/mVmawSHMlHlz1rLKqiwCRaAIbAkBOMxvAVCG4+C64X/SH5OCxpd54wsx3CQAbI3z2NAhGaPAs2czAwORGUMVMq9CRjzNgsEb5fj2v0tnW3L2jrUIFIEiMCIgl8FtcJyxRe4bObH788Yc8DbxAltivXHm8AjArwJ6x28y8MMPPzQz+zCvMkbjFmvrcR5/N1vHGR2q+0WgCBSBLSAgh8lp8pyBKPdbnj/WGMONM8b4oz6OmcCfgc63BHPZoIqZXzFiSmZmJiz2W3DsjrEIFIEicA0CcJ4cl7wnF1YuE2eM5WIPzmzE/kOJZwEGoVyiyROqnGWUM+IK5mxkzmbPh4r+KQJFoAhsDIHkscaTx8SQjCli7iNmjhHrfSnzkAD89ttvh0ozheyg5WWVhjJcnhF/l2dcndmYz3e4RaAIFIEDAnIYnEYskePgPG86G2OWjTGJL/iDOzGf7fgtgMPOn48BVJIyO2h5fmX5XAZs+YUmpI5z0FL/FIEiUAQ2isBhqTm4DX5LzmtMmT+miKkxXEm92/FbABQOO38mAN6R2knlcgoCW5WDdMlGJSlzVQCHcgnH45VFoAgUgWcgABfBSd60yFWOhX3f/DeWyHPuVy4bYzKmG+/RzyEd4PuZVOaSTJ5Q5SyrnDEbJhHw/wDoWPk+gGW/X6ujVRaBIlAEHomAHCQncW3K8pY3KsQQee7jx4/Hx56NLcvGFvDNWE6MRyf+xsyHVCBZGUqiER/vTKuk5ZSUmbAOorOQOetAONaXL1+OLwaOWfYjnb7XKgJFoAiIgFxE4Iej3OQug1ByXWPKcjElsSWGG8+JL+jAZI3Yf/wWAErzRE6wXLmsosTaZ//g/enTpwP+OhL/uMFEzTpXbdyvLAJFoAg8GoG8m/TacJX/bIbjeSNpQCIQZX3jzGPiDDizHZMzlwLM4lQEgakZ27JKEetTEh2oKCVLa2ZwPnPT8SqLQBEoAo9EQA5y2Z9ry1VIPt7kjDx3qn5s1/3b4xAxPHFGP8Z6Yv/xHQAOoMyCfTvYt2I3ZsI8IzP5Qi9+ZUOpk+lo7HcrAkWgCDwaAYO815WjlASffAYNR8J3cNytfNnzbo9RJmze+H+wYDBBYS5BG4QK+O2AX4qdz/8zW8Nxxo1MG52pr/F494tAESgCj0QALoKTXJnMa2cMkePkxPHGx/rK+eKN+BPTiS1sxg509scDgT/v/jmY4Hty1rU8n3LEUpwN/mbM7Ks0lm1GBzObS4druQgUgSLwKARGDoKjXGKWz3z5TL6D3+Q86yrnjytgOuKMXaTOjgmAKwGclC+kVTHLKOZSXFFgKs0kgCzOTO5Rzt7rFIEiUASmEMivLctNl3Jc2y0fY4zp6M5YT/mYAGRgQSHefVY5yyvnEowz2JvBqbMph2xdESgCRWBpBOAiv6HEnb/c5N3/JdzWNsvFmIzjxpCMG8ffAVBxGIzPZpRV0HIKOoctOuDDho74oECX2ZZ28PZfBIpAETiHgEkA/MQLgOPz/nM81+PLxBhjuDEEPRrr0dlhBcDlG4NKlbGMMm7B1UyaRwFmcDqjinS/sggUgSLwSASMGV4TjpKzlLfwXs+ZPwahI/VlzD8kACjNChq5bODLaFXG/Mq4FFMyN1/kMMtWiWNCoBNWFoEiUAQejYAxxLjRVYDnxQ3jC7ownmsP6MnY8SGfB1B5+GrAn/8UyE4qn69IkgBfCERPKlClVhaBIlAEnoEAMcM4Ai/lsnNjx/NjhzpATxk30Nk3LwF+83bgny8CenLl8xRpBocOcktlZn3LRaAIFIFHIJCPISlnnOgjgOfFDPWgDrSFTNao+zAGERqgSJed7ajyeco0ozYRyERNxVYWgSJQBJ6FgCsAxAn4Ss5q3Hhe3BB7YjkxfYwbxP7DLSUHTARoaCZn9mBHlc9RJs/S1AWSLZWJvsY63xM4HOifIlAEisCNCBAbjAt0MXKLXJQc1ef/z4kVY4xWJ6k/9KnODu8AGECQJgJjR91/vkLz97NxRF7m8MVAX8Ch3jqz8hv9vqcVgSKwcwSmuAReMaDIO8aH5CjrKp8fOzBjEznK6O+bdwDy/zhzEKX1McDzFccvOOVyGjohq9PxRn7yn3A0+I/IdL8IFIFbEPCOH07JOOHNIlwEJ2W8gLP89bkmAM+LI+qEmO6WOvzAAZcDzBBUbBX3PMUl9igxn6v5NRv0pO7M1M3sVHZlESgCReBWBJJj7AOu+eWXXw67HIer5CR5ysCTPNbyc+IJikJPxAYkG3GD/UMCYMXhSDxfzjvPKu85yvvrX//6zfN/9KBzoS/v9FHmuHlsrO9+ESgCReASBOQVuMSyQUSZnOQzZyTc1bjxnLgh7sRwNm8Us3xIAFQiywLeRdrYTiqfq0Tx17nY5yUbEgE3l+nUJ/VNAESnsggUgVsQgE+SU3zEqISD8oW/5Ch5q/K58QO9G9OJ8T4CQK+HbwEYPGzofiq2SnyeEnEyl9bUg6sA7Oug6g0lm63f4vQ9pwgUgSIgAvALAWTqhgL+SS6Sp7JOzqp8fAwhhrMRG0wC3EceHwFkJWWXfKq0xyttxDyzah/LWMc+DmrAR9FjQoA+uxWBIlAErkVAXvE84oI3GnKQUm6Cv6wbuaz7j40n6C8TN3WHPjn27U/LqeWQKAzF+pIH+5T7fOexijzlOGbaqszg735lESgCReAeBAwgBAwDyCk+av3j4wKxeIzPJmPn9H42AciOx+94Nst7vLKnHOzz58+Hl21S2ThtLvnksZaLQBEoApcgMH7dmBsMg8sUF7XusTFhjMEZo4nd57azCQAXUOFejP1Pnz71Dc8V/NOk/K6tL3ecU3qPF4EiUAQuRYC7fu/8SQAI8sSA5J4G/scG/sSbWDwVo4nX57azCQAKN/Arvfi4b33lY42BTM/Mz0cAfqPjnAH0eBEoAkXgPQR8458VRQNNOf6xHH8K7zEGu480Fryn27MJAM99fM7MIDAAOkdm/akBtn5ZQ0EHKt3HNS79++zuPQPosSJQBIrAKQQMIocXxv5c8eRmg7fL5Z1y/LIc/x6+8H/GZNtSj87ObWcTADqgU4LLqPBx34tXPtYg1INSpeu87lcWgSJQBK5FgPcAWO6HX3rT91huPxdL5Xzbse+N4CV6PpsAmEVwAbMNMsAuBa3HEFLp6AnddCsCRaAI3ItA8n8GG4JMk4F1xAD43pisTtC7unvPBs4mAHbUHwVah7LN9JTqRcXrpOx3KwJFoAjci4A3FXIM+/0a+DrjAbohJlwS/LGLixIAlpLp2KUF7/4NNhzrZ50YjIaQ7wWMx+4lip5fBIrAthBIDkhuYBYcK6+vk9fVizHYmGyMvvTx70UJAC+VeUG/+qG0vnKdhkLWPvVSoHXboquOtggUgbkRSC4wCaAu7/jL7+vkd/RiLFZSlzp9z14uSgDMEjUCDUNpfeV6jSSNQH363d481nIRKAL7QUAOkBOcebl8vVyeujEGKznGNupTvY7ybAKQSwl07pJDDqLl9RpLPqvTKMzyR2PofhEoAvtEQE6AI+Tz5A7rKtfL9cZmLThjt3WjPJsAcIIdoXyeNfCSgc8aahDrNYjUjc+IXBrC0S2PRtH9IlAE9oEAHOCNAWU5Prmj5XVzPLGYmCzHY7nG7HNWfFECQCcGC43Bi7lfuU4jMVFTXywV+cte54yjx4tAEdgHAnCCy8hyhdxRbl8nt6sX9cU+m7H6Ess9mwCMmQQX4beHuzy0bqPQOJBpICwT8UGvo24vMZi2KQJF4HUQkAfkBXkjOcO6ynVyPrHY/82TlnkJv59NAOiQjsgqkBn4/Q56DWOdhoFefC5EmQw/HfsSA0mDarkIFIHXQgAOkL/hBlcBRu6wTeW6uD5jMLE5Y/UllnpRAmBH/oMZjSODSw1jXYZxqT7QrYkA+rU8LiPl28I8M7SdtlFZBIrA4xFIP7Ssr/Jin8/3c2TWcfxSnmi7dfJ7rtygY2N06vu98tkEAKMyGGAw7GsMfUa0TqNQP5dKDOTnn39+YycQhR/fEqaR5WuN7c0FWlEEisBdCMjNSjrDP/FbE4J854ff9aeewFH+3j5/pw7Rq9yMPaj/9wzsogRAo7IjAkte+NJA03brMzifHfEjEmwYDncQ3iWkEX358uVoYN5laBOVRaAIPAcBgjpbBgD29WHK6a9duV0fD98TG43FByOIG7Tkbo+N8mwCwAl05N0eRkVGme8C3DP4nvt8Y5QQMCTvJNJ4fvnll6P+NaBLM0zbVxaBIjA/Agb59FeDvXUmCPisfJvPjq2rfD4X36IDYjExWVvIR7nnLO6iBMCgYBJApww0Xxi5ZeA95/kGZ/ZoEoBONCSXC9G3ZMIxl5lsd87IerwIFIFlEYCbc6k/uZor46vydW/ens+7c8U+dap1qXdjtvWn5NkEYMwm6RhjGt8YnWtC7efxxknwR58kAyYE6MFNYlFST0JgUmC7yiJQBB6LAD6YfsnVMzEnIORvxKd/Z7m8+3jenQNzEgC4G50b9OVlY/d7FvmV5U+08m6Pw9khd4dzTKB9PN/wJIJcBbA8mgX2gKFpZOPx7heBIvA4BAz2SvwSnkbipwaI5Fl8+/Pnz+XvF/kvtj7iweoyRmfsPmWRZxMATnRZgTKdamxkHmlYLT8/mF+rA5eQ1CXLgwZ/+qLMhmGNBqUdHBr0TxEoAk9BIBNyfXJ8xo9/6+tyxLhvfeV2eBy9sqH35OeM2e8Z5UUJwLsd/PlLc95FYjyU+5xpO0b0nsOrVxMB7/yV2oYGJwGNx21XWQSKwHUIJLHnmfqa0jv/XPJ/z7d7bBscTSyVh42v3rClPdxSvjsByIF9/PjxmxWBvJOssW3D2Kb0hB7zbiGDO3cfEpD17t9ikD2nCBSBbxHIVVcTbVrge3xDxw3f9Wu9+GxvwrbLufLwGEMzxhJ7793uTgAYoNmIg2VfQ3Qilds1RvWaxofhQUBs3qEkUZEMmBDca6Q9vwjsFQGS6Sk/0ufAZeRW/FWfHY91f3s8TCydirHo+N7t7gQA49TYlBrZuG995baMED2mAbIaQPZJvVvemUBO/GhQtyJQBOZBQH8iIfBFL6Qrc/inZRP18T2A8u62eBd9jTHUfeRUYnittd2dAGCQGh4DxhAZXBpkDW97hqfO8hGPZYlFif7Z8mWkaw2x7YtAEXiLACRvwJfwkSbgcu6YoOu/ldvlXnQHt2ZMVZ/Uz/Go9e4EAJNlUGmQDtJsxf3KbRqjBoj+1CnBn/okHrNSHwWM309+S2+tKQJF4BwCBHwft+GD+Wxf/1PmzVhfBtwm32aclG+tY98bsXN2c8nxuxMAsxAGaLbCEpQG6cArt2uMoxFqgOjUY0rq3PI5pXWVRaAIXI6Aj9am+NP3rPRHV+Sm2rZuu/xLLDWmmuBhQcbey63pbcuvbP322MU1DKTGt10De48cNDgDvHrGKCWePD/rLjagNiwCRWASAf0OH/OmijrLU77H8VNtsn3L2+RsOHiO4I/BzZIA5PJUGmaW12xsBjnGaFknoo5yBjbbcIx6jjs/y84921pHG8ue96qSubL5/JKyzzTHdwayjasH2hbnYfR+su3hAv1TBJ6AgESs1G6VDsk7ee02bZ86P7SnvBd+eFXem2teaQeWsZHkRW3sFjlLAoCx82HSDjID31xgLNGP40USrLzDdS7jczQTAdoyR893OY7zOJYf+0rJufksj2Ov+BEfcZsyUoxZwsyftaQtyQKEaNJAHfseOxT6pwg8CQEDP5c3yGdwp943+LHxbM8x7VoJB8idylfkhc7pcr7XDuRS4+0cJn93AqBxMxiVuqXfmSZQM+4MxpQNWB5HCSQH7hOEnK/Bn3NUlsfGvtm3j2zzymWxS7u4xHglSyXnmCBImJf00zZFYEkEsEVt1ESW65EInLpTG5PaV/b/zu3yYH8KqynuzNh7q33fnQB4YQ3a76B6R31qQmuqz+DvHT9Bmk3Hzl/cMvjo3Owzf9tSFgdXFOjPRGFL2Nyrp6lkx0yWvsHMD3iLqXbFNwm8s1J6TLzdrywCj0YgbVLbxWblCMYDH7CZHCipG/0L30jOGI93//5guiUM4U/5kphirDkY1Ax/7k4AMGYNX4Nm0DnwLQDuHT/JwHubX21zzkqdnHOpYx9sUBjzV4l5nanVgi1gdc0YnbfnmASxP66YiDvYjcEd3MU4ydVzKovAMxGQB8YxeJfmcezapBjpDQf+kHyQ9fpO5b6CP/qGP42n7LthT5lIWn+t/NrjtWcO7ZOwGaiBbu1G690/zsfn559/PszMIGMQR+YqgJm/QUk4wCHrsowyucYendsVEezBOxzKGLc60FbAEtz4jEbuvviLe2UReDYC2Cv+70dbpR7bNhlO+896EwAThLGd/lG5r0TAWKp9Z6y17lZ5dwKQg8HgNfY07LUbrI6JzM0kIOtIEJgjm8edt+08btafS4LUcVeAc+/BwSW1tIHE2/off/zxmOl6jvoAX7GUVMG6SYAWV/ksBJL/9Psci/aN1O6tY9+bgeSCLNu2cl9BX32nzWBfyX9pe2lz15TvTgC8WA6MOiZgJutk1igNNo6XMfuimQ5toMk5WlYSoGwvJspUVLZZIx5LjEk7gNjSoKkHf+tSF1mWJMUTDE0IrKssAs9AQH/Wx/Ef7Vm7z9Uvjrvi5Z2d7ZXZZgl/bJ/bSSa0obRtY07W3VqeJQGYCpAOHGOTzNMR8vizDVLHQzpWAXVu7JMY6PAmCba7R+Z1EwvHknXgZv2aMMwxzllWN/bJ3CVOdKE+En8dJJOEMUGjDedK3ErPpb/s2+PI7Mv2rgblOVnO8bV8OQKJoWWxFnvq0UnqyCvYJnXmMSTn2sZ92rpZzjYe41w+2CY2qV9qq6PtWl+5nQD8CF1xYySncT3L8jvSTTvMuOSxW+TdCYAD8uU49g2UCV5+jcElrtFhsv0jy47Ha+K4Y4CXdAAZp2dz7rcA7zmSCAo1QcqEIAN+jnNP5AIGUwSrvnSUKb0QFAwMkrlSHaBHPtTb1mP0Obb3GOdwnHPSFmyvtH3l9QiIoZIewBrMwT5xz95pn/ZgmTaWs0/LSvpPW/A6nIvdaXPaoNIE9dRx21U2CcAGjIGjvbBvHTZHPNIGM9amzd9SvjsBwEl0GgfoQDTyDFaWmbgTtN0zpArg2hlgKRv0maNzM/NSCc51Duk1xIGlbzFinC4detxj7r+iZI45TzHwsQBzRlepR9tTx4YDSebqjzrwRo4bbWzvMfVtcpu2YZvsb0wgbVN5PQJiqc7sQR2hC47ZTl3RbtQv52Rd6kzbyDbalTaFvVGXXKEtapu0Ge32FX2zc5onidGWiI1ZFl/tHWmMIOZq/3n82vLdCQAXxAHHAelETMIlDYl6yqmc7KOljq0Tc32/qiaYJjhJHB67V6JQsBqVmTiIl3UjAVn/ijITRsvqTGk9809sqBc726a+tFHx17lSz5Sn6ukHu7CtCQH11o06zWu3fBkCYiimnCXW1Omb9mY7dJbHraedetP3PBeJDWkr2I62JXfpY9bbVpk2ZxvPqZwnYL4SjsbGcU7aDnarD2CflLFffSBt95by3QnAqYFImkxM58hJZrac9WsqO26BV0omqZhbwB/P4Q4kSQsMwUNjoCxujm1NeC0xFuY5OgkY+Ehp6rGJ40jcRrxMDOibzbtG7wINLOpYR1Q/1nOu59hP7h8675+7EQBTdURnibGkmDqijTqCozxGPWXtBlvRFrSbtJW0IdtaZx/Yon5pH9hV9mN9ZZOA0QawFWww7cUy9mospZzbqdibbc6V704AuEAO0DJOxoZkMkzwp59+OgQ0ANCJRjCesT+OBceWFJAcZ5NQmKN3EYcDd/6BzAw44CWGdsv1Mwg6tmdg9YxruizGvF2dYRw6iURMHSs5I1a2s57+Rp1zrsftB8k12dQPulE/6YDahjojWOkD1lVejwAYZuCnh8QxLpVAAAAgAElEQVRaHaRe1JV+os2gX+vQrR9sQRvTBuQs21Cfq4TanLZFO65j//bn+ZVf8S4WX7HAXrQVZNqT3iKPyDvUZ9l2t8i7E4B0QBxT59QhkToFis9J6mxrMAiVkApgfO5DEswFZThn53oL8FPnZH88z3T/b3/72wE3xiOWa8JuSf15Z+W8uRa6QC8ZxG2nvtCn53jMcXqex5EGCY6J7Sjpm748n+MmgtiEjqrelFO6bt1lCIihUv9Dgr06QifoRv1nPXpXv5Rp40cbUKfaiDbD8ZEbPEZbzqOvPN8+s539Vn4NfsXi602MNqYdgw02bhzFW/ABPtSxGYcu86TpVncnAHSLIzoo9rPMPpNhgjrn2hxDh3V8kse4Tzs2iV55qLzjj/24rOl+dgmmksxIOK/uSM7X+esszFvdUfYOzbsz6tQl7abajn15rRFT+8nr2IY+2DJIeReaOmz5NgRMshLj1Nuok9QVZf2Ydpa1pfHctJPsR5vSxjgv7cnx0C8fr0O7forBezagTWFP2s0YAzKmUp6LX2ZJAN5za0lRZ8JR0nHeA2YNx1QIY7Gc8x0VNe5n21vK9OeH88VOPEeMGKNtHO/YpvvXEZJ4pg2IIRizkY2nk1Kn7R8a9M9NCIwYgrF3PqN9537qTF1VXmf3xetxeGGvJpFwO9to+zc50JmTFk8AnAjGlHf+OGtm4Ws2NseJkiwzXrapgG925h39GR28e9j+vQuCACU37zTc14AYW45zzdhuZWxijN3ioOI7Ks/sXL2Nx7t/PQJgif2PCRY9aevoxARAXW3FtjrOxwXatWEthzsuY+Qjgv/Bf653x9vO4Jk2jilxMuFTd7GCsSYpuTAmyypPYvLOBITmCP70M5KfhsG1vT5jAluNR9wcp/uVtxENOIK1y8AGGD3Bl9Tm0rn9Vr5FQIzFnBbaPxIdpV/U5m+z+eL2GNwyBmK3cIu/Z/HW+uevWXwFgMl4N4RROcmtGJh31VPjRlkEByQb8zQZYN9gfY/a6I9+s2/7FUMDUu47busqb3PoxDYTKvWrbSvRjTagnu7R/97PFUMwtSzWSOu079RR6s7jlbf5QXFbFjdslRgDzmzY9iMSgcUTAAnMu2MmuHXH5OuMKov5SDrONf9tsHVzS4MM18+xuArgmDjez30YiKVOqi7VAfr2ztTghL0bnGxfeT0CYCh3iC1Y62PqgJ4zSVdntf37bL/4PQY/YyJ2rL1f7y3Xn7F4AoCD5nIdTqxRZeCybo3SZRqCq2NW+gYnbVKJqMJ3Aa5Xy7dniJ+GASlmcGEsjhH8HMcasdzamMZAArZs6sKgRB1ByYDk8W812b1bEBBLsDXw04/Ye3y0+1F3W7O9jvcxwfeZOBtHGIP2jG3D+XLJLT5z6TmLJwAORCclKOKoW3FOScXxEmgz6KO4VKLGNFfwt58M+N5tiu2efydAvJeUPk4hAUQf6gIHNRlLZ7U86kl9VV6OgBiKKWdO4Y4e0I0rYOpsSbto368foB+hY2ILcUauN1Ze7iW3t1w8ASCrcWI6Mc4KsAbVR4B8zzVMApT0JdEwBxVIfd6JO9/b1fPHmfksyNUAjqShcC0TEcZj+Z5599yv+kSvBnv1mRm7Nk4d7brNiwCYirdYcwXrKKsffVBZO26gXqsNGAPlDGMGNp62Pa83fe1t8QSAS01l8U7coDo6q/VrVdyl41Kh4KBCR/lVHfeVckzim3UtTxNhYjW+6W8ihWbQpY6qDu/TWM+eAwF1gW70N2xd3SlzVSDL9Ytpvygu8+AyxjJjnfXwj5v2a8y0fim5eALghLxzZd9vBmBggkFZIn4l50TJeQdvZufdyhyKFVuIkOuJn7KOfNqRdcLEyn80JG4u/Rto0NmjHHQO+3j1PlIX6Agfc4VOfnE/OUe+Uc+Vp/2k2NyHjfySNqdtYrPEiKlYubTvLp4AEOhcsnOCTkqjIkP3zivrLG9ZMjeUb+B37nNJg1I+DtgyXo8eOw5pEuCdImOwrO7UlysA7GfZ45WPRSB1kGX8TdLVptCp/xOAY+rY45X3BbniN43faGf+VoV4pccYI7HftOdsM2d58QSAwRKcxgkxOYKXICAzO8r6LZdT+am4EY88dk0ZHDUazmMfvLhuXnvLGC45dm2OJCBXT8zOuTZbvn3uissjHPQaW9hjW3WgTlJX6M7kzhWA+sV0kFrSx9r3V8zlGzEhBmrD2C5lYkPe0C3p14snAKcmkkELMMzMKfuW/QiWoG1JOgcDCso8hcmtih5XATAiMGoC8NXx3rMZg0O2UW+pk3RUMc/jLT8HgdRF6ojR6APqM3Xssaxr+TKfKU6X4aTdGdPAzVint2QstA45d5zIvi0vngBwoZygZZ2WbCcJ2EAJUFneqsFpAI6f+bqNZGX9NVIjyX45H3y9ZuX7zpqBgB954q4RvWmj4JnPma/RT9s+HoHUFbaPLuUYVwSoHx8R1E/e95Picz0+GcOyjD3K2fKMsRGPyfKSHrR4AmCAYkIEPIMe+06SFyCShF/NOSUf33NQoblsad0tEhzTmH7++edDN3XY8w6rUxIkMiAQKMA1gwn7OKt12vItOus58yCgDtAJupFT6F096QcGf3VufeV5PylGt2OUvAKOxDpfDMdetVnjo/vGznk8ZbqXxRMALktwclLsZ1kHBhgcUycdE4KtGmCuAOScptVxfW0aiYRHL5a3itujx22SlokAOGqfabPUj/vXa65nzIXAqAv30R1JAX4nr+TLf+r80bbW690eTLeInbyPDZp8YvtyC2Vt1rI3dHP5yKl+HpIAnLo49S5/MGGVCwkLlHVblhiARuA8mDsGMGUEBnWxeQ+/c8foQ9KTBE1KXgljcb1WioX6EZM5sD+nmx5/DALoErtQt+pa3V9rM22/rwB+r76xu7Q1g/saOObpCQABUEAMUAI+7lu/NSnhMB8MgQ8vhbhhCAZ968TE/Xtk4sW1HU/W77nsCzpKsJgT/3t013PvRwBdat/qWGl9ZYP6EjYwxjD22bDJvPm738pv6+HpCYDD/vLly6FocDJYLqGUR/bpfJR5bYKxRmA2aCKQS0JidIu0H/CU9BiLb6LmePZY1kGVYMCmXm7BvOesCwF1qX2ra6X1lU0C5rYBOF47g3fZjHVr8JKnJwA4pw7qUt3cSnh2f/kSCEaAQWAYfBgbm3ecYkGdycA9hgKm9E0iwHVzLM/GZW3XT32AuUnZPfj33OcikDrE3tTx2myv49lH8qE9Ztx7poc8PQEQEJdEAMa7U+9Yt+wc3vn7/HH8mVnqwYBg74t73rXPbRjiCAn2BaivhIMOfE8CjNi0y7l10P4ej4C6RLf4I7rWH/WJyq/+UCzmw8IYRkwz6Huzp10+3iO+XvHpCQBDGQMe+69ihC7/KJmXBGRyQJ2by0MkBHOsAJhU0D8GyLV7F/Stg4960EHVSeX2EVCn8krq3LrKb/2ieMyHx1SMW4NXfY08TxqNjsnlKRuwXilD966fwPvevFSBGLg/h/R7p2SdODaJQB38DwdnNcRVp8R6DRl6jqfl6xEYdYjNo+uugM0X3Moj72MJ57PB62O8u96i5z3j6QmA08m7XZyW/VfM0l0JYG588m4cLAzUlMesUayukYlrJhZ12j+cNhMhggK2h5OOgeMazNt2XQikTjPwp+7rD+8HseJzGz5wPBycfJKc/GxPWU0CcAqINLwMlgbSPL7Vcq4KgMMcgf8UntaDZSZYEmOOJY9vFdtLx838eUSSW2brWd/ydhAYdYiOtfVLbaPtbgt+e8EtY1HGKOa/9m31IwREAhGBSXAT8K0bmQHXOWkwvjDi/j3S7DPvbFkNADvfCQDbvCMS663je2784K4OwJjkawwa92Dfc9eBADo1scYm0Lk+d85GerwJwDkb0JbgTWzLm6d1WP/pUaw+AWDogC/A/i/lVwtQzod5GrBPq+3yI97VKvNMrqNhe32kxqu0zStK583cwMMgMYVXYtfydhBQl+h2yuZf0a47p8clLXKm/+vFWLUFD1l9AqDzatBJ2ALtsa1KMka/LsIcmLOBaA4j8pkT5GfflPmwcU3vgsUwVwOse0WpPZHsjJu4jfXd3w4CUzo0sVX3r2jXndNjEoCMQWlPeIixa83esvoEIAMhjivgCfaWjX2cB88nmSPbFHlda0waocvav/zyyzdd+B8JxTDHs4ckwGAA5mDFoxG/ivkNUN3ZNALoFN2iYzlE3Wv7lY8Jmq+Gs5yJXWFTbhm7rFubXH0CAGAGQh1XAxJ497comYPzyFWAuQzFBCCNETxJCDzmtcCPoL+HwJ+2wtIdeLgiAh4jNmJUuT0EUpfoGF27XJt20HITgGttQO72PGIUmzFr7d6y+gTAwIUT47i+wftKQcq7fozIdxwoZ0C6x5B+/vnn4+nieaz48/cX/PohOHNtcdawX12CB9jouPmVycSq5e0hoC7Rrfb/6vbc+T0umTEWwZl5Y6WtrdljVp8AZBAkOPHxebVyy8aeGeS4JLmE4YAfmxJ8xRiCtAym43i2jPOpsbuqJB7KLTjvEvbxin2qS3WLxB7U/SnbaP3jguhWsTYGIbErbQw/kkvX7FOrTwAAz7sygTRoEqAsqwgMibJZ2VYNy3E7Z6QGJR7uZ5try2mwnAtZ2j/Y8kmitCzujNPVAturA+cwhzzVN+MxUdEGRt1zrm3yMYtzoC4fAVDu9joIpI2bDMxhk+1jHwkCfCK3oHPLySuUc5NDs26N5U0kAACHEwOqQY+gA+h+0hmpY99glce2Vs4X0py7hjTuW3+tpB+CnuSY51OXmBlIlXkM3HUO6ufA3+Qi+zLo5xgI4uzb3rG4n+NibD4Dtp45j/Mf9xOXlreDgH7iC6+MHBvQNtKGW95HUL9Uz/KOMcXz2PeDHbFhZ8SoTDjX7iWbSADGbMrn1SrDQECmlmWPb1nyu+XOPwNSktmcRubz0rF/MNQZEk/xzjrb+fv6eeyWsnf09Ov/VaAfHTCdk/F4fQneYO+1PU7wNziALR/2E+c5sW1fj0dAfWrX6lZbqGzAP2cD8g/ckmXPw6qNSVq4nO3+WuXqEwCzKV+uyOVZFTAVhDjm3Z3ttioNUhqRZJZYeOxaKb4Qo2WvJ3l6HdoYbA2iYmowdn8uSb86nX0S2MdEgPFkwuFSv+PUFuiPY8yF+Tm3EbfRocfj3d8eAupccjZB1K4qmwyMNiBvjPUZc/QEuAQOlVPkU4+vUa4+AZCIR2C5Q4XAUYxByTKkf0pxoyK3so/xZJCmLJHdY1jgaj8GfhKM/L0AdcB1bAtu4DxiL54//PDD8U7culukjoa0bD9eW0k9bdS9iYPnMT8+zsFEim9JUK8D67i2uwffnvtcBNClesZn3NC3dlTZwP+eDcAnp7gOOyIWyRlyCHaWvKndrU2uPgG4BEiVRyCQ9JHe/Xl8yxLDMiBhdHNu9gtBZuDnOh4zq/W6Jg5gOjqHAXgJvL1r8w6fa+Sdv8HecTFeA0COnXImVB4T2/ERiMcrt4uAtswMeLcmbWUJW22f208s4LaMKXmz8Z4nbCH4M/5NJABj5p7gQtg4GoFBh1ZhqawtOyPL3c6Z+RKME5P3DPHcMYNj9mdgzKyWfrg2CUISqYkB4yPwm4TNiT19mYWf0mMme47VuTMfxsf4KSOdm2X3Occyx7ptGwFtFZ2iT/bVr3xxyqZav/0Afq8O5TFjCjbjTUjyg/yitySfWrdGufoEQJB12gTWY0gUjbIMBHmHeK8RrOF85uXmvN2fQ0qQ9GVQf6/fvENWJ4zLc8FsDoId+8iMXBy8PuPVThx7HstytvUc+8tj9lO5XQRG/WIHfNbg1x3D+pMMYwncY0IgVyjxDvlltLc1e87qE4Bz4BlwkASLDBgq6xWcjDtgjE2D08jO4fPs4+N4MzFQP64ccIw6tkwwnj2HXv81EXgFXugclk0g5Ch5i/iSMWfrnrH5BAAFuMxH0CCYmAQot+wk4xyYbyYCazfATFRMBsYxo78xe6ZNnjue0/0icCsC2uGWeaFjXzbwi6/8iyS2eGNizLnVBtdy3uYTAJ1ZQF3aQ1kqcesS49MQmZ/B0jlvRaIrgrqfnEvOyXZbmVfHuS0E5Iyt80LH/5gkwFiSHIXFa0fbsv5vR/sSCYCKQEEEFx3DoOn+FqVLUL6EwgsobAbRb9W53j2XzcYRqjvqfSGRMhl2HhvP634RuBUB7WqLfNAxPyboi3PGEDjXJAAb0o5utcM1nLf5BECFAGYqBAWm8lTo1qQvNTpuEgLnnPNdgzFNjSGDukkAy2i5hOYjAByMLb+KONVn64rAPQjoN/pU5WOD6pbwNoZob9oO+/Kwx7YoN58AADpKIXj4VTkVsyVDe2+s3PWTCGCMJgRbWgEgwBvc1Q16IyEwEdCxMmFoIrBFSln/mLW193yux5oUaANYtLxFjIHLtKH1W/v7I3yJBCAVhGIILAYclbhV6fMngr+PAyhvZVMPjNfgjn7SgUwCkFm/lTl2nNtCQBvbKid03I9LTrBsOCw5y2RgW1Y/PdqXSABSITo306W8dWch6Bv4vft3WSrnPa3e59eaACgdszL15Whp69u21lUWgbkQ0Oa2zg0d//KJgLaC7WVZ/prLJp/Vz0skAO+Bh9LGwInjGFTX7kQGe8fJXFwVSIP07po6PgTRPP4eRj1WBPaIgD5VuXwgXTPGGQvkW3h2D/z58gmAxIYBmghYTsWv3UAJ+jl+x8v8XEJ3rsg9GG/Ot+UicCkC+oY+VLnfBIAYkLxq+VJb2nq7l08AcHae37CR3ZnheRe9dufHQDNR8Xeo/XlKxu/GXLnzNyFwVcDjlUWgCHxNjtfu+x3fYxITY4HxAR/JZ/6v7DNfo8crzzJ+VQ6nyu/Ur93JTFjITC2bEChJCgj8JjovrspOrwjchUBXAB4TWNfOrYzPGypjAoYFl+5le/kEwLtg74pRuoF0CwZKkDdDdbwYLf8hkH2PabC+nNKX6ESksgh8i0ATgCYAcqnSmIClGCuMHd9az2vtvXwCgLoMii6Ro3QyPpWuEaxVmp2yCvDp06fjNxtMDpwH83Our2WmnU0RmA+BJgBNAOR6uFN+zRen98KjL58AjEFRxWoAa5cuUflyCuPFaAn+Bn7KvBPAagAbGazJzny02Z6KwGsg0ASgCcDI+1i2scGydvIaVj89i5dPAJh2KtIyyiZwjoawxn2DvQHfjJWxju8G0MbNubpfWQSKwFc+WKOvd0yPTU7gVgN/8mWWX9lndpEAvKfAdDgD7FYSA8fOuB27dcw5X2bxuRb1Uwb/HkY9VgReEQF9pfKxQfcZeMvpUzz5irZ96Zx2nwAAFHfRGghL6ZafYai3XFOjdh6Mn3mw+c0AM1qTAusvNZS2KwKvgoC+cIuv9ZxtJgtyIvqjDFd2+/333ScAkAHB0CCKgVjOpfa1Or5jVeY4MXTeIWAj8PPx/QDr6gRFYG8INAHYZhBPbru0LIcnP1KG87WDvdl/znf3CUCCwUt0ZIZ8LjWwNbTTyBkLxp0rAY4v50nZ/5w41ne/CLw6AhK/vlH5+gmBvO6L0q9u45fOb/cJgHfEPiOHDEwA/I79mgnCzNax+vsAjpnkgJUAPhCfKwG+B3CpobRdEXgVBJoAvH7Al//kRTkdGx45/1Xs+pZ57D4BELR8Jq7xbEFq2ErGTNDH8E0OnIe/IeCcfR/A/coisAcEmgDsJwGQ+5BuyfXW7VV+RWWnCBgEfT4ODAROP2lAay17189dvhlvjtXfEuC4bZmvRLhT1XfaO0VAu08fafk1kwJ5HMnG3X9y/k5d4Djt3ScAGoWIYBxkiPlcfUvk4EqAhu/YTQLYJxGw3nlXFoG9INAE4DWDvZw2SrgcTjfwY+c+8t2LzZ+a5+4TgDQKQOLZuMaRgZI767y7zmOjwW1p30Qh3wng/whIkmDCb2KPOOVx2nDcj8ZGG5fbxj7yera/ReY1HSPXcnxIPx4fr2N9/3/CiMxr72/JTzvW00lLcvEUT2PFcPrIOfr9a1v5+7PbfQIAPAaq0UA4hnHxnXodEANj3ztt67cufT9ApzCApvnwzQGPW2+yxL740ebLly82mZS0mbrGZOMLKhkb/Tke+jf5yNNpM3XdHG/2kee2/BoIqP+t+2zH/0dSABfDyXmDxj7cPW5wFLygDYzH97bfBGDQuP8ByrtBDAVH+/jx4/HrdToed8+WtypzDlnmkQGBEGcxsBsYgcwA6zHqdKzRucSU4+Ca5wzw37Sb16Ns/1zXa9Ox4+d41jMXN8v2YX3l6yCgvWzVZzvur6sByVkEfJIBuBqM1LNcnj7/OtZ830x2nwAk4VvWcJRAjEG51ITEyNzfukPiNGbPSuZkmfnrRARxPrllXWKGw4npGFA5x2PZ1y1lrkn/eRfveOlvHK/XMCHwOJJ+HGvOxXMqt4+Aet2633b8f3BycrGcrJWqayWco3/PxT9ea4uyCcCfv46H8jQSAtcvv/xy0KdBgh0czuzyVZyPDFqnYU5m1L4E6b6PPKjnM2bTYjc6FfUGex1vSUdJB+e6jpP6HFuOxbHnuDwv61p+DQTU96v4cOfxx4qA3KyVyt1wuf6s7jmWfOA5e5O7TwBQuIZCUDDwU6+xUG/AwNkIhvlW/Ss4IIHe9wCYzzi//9/e2S3HyStR9FwmruT93zPlOLenlvMtp0eGgcHDjBCbqomEJEDavXurxY/j3YBabpBAe4II8fKvDFbcdDba8BPPezhcXfl7Hc7bXoN9+l8DHvtNsPDr16+P7jiWj4JkhkFA247gtxnDX61ygQJJq+5oa8rRdjVBzR+G1BsHcvoAwMhQYkggJpI6mdSIcSSnc2J3UtSRGCN13gGw3rFbzv6PHz8u3oXgBRzbkRKZ10la56vOuZG/H4dVW3HN2j/7YoDjmBkr+XosgYBbzVuW9PgIyDt5kfTfM/UjYwEz8WX1xX3KWn2nTu0/PqO3j+D0AYDQQRKFoRV+JwiIZRscpU6WR3YcVvJM8E6aTpB1TNbVshYDj7NtvUNQ69pgoj3nrfuem+O4dh2LNrKNfat9UAy0bRUQ+ZF0HAS08608S/v+AgX9G3ZiV31XzZa1ajpt2jrbnDFNALBg9ZYsRJKSzEnEScUJKELRn1Bcs8kCBVI9KALXOJG6/nx4SmfRYDY0ua7yKWu1e1Aaf2lYCQBWwEfUSATZEoxDjUAVDFe9kLUS1vqk/QkLdnRVuIIOaXJwBLR1fLE/X2xtUnVUbbUN2ttuaDRarY3b+uxfIpAA4BKPxT2fG/mZGUTjGTdkbJ99S9SkfQsNRo9gLFJ/mAbaOn7Zt19O2QeNRWvRXO2oFqvNwxD1AQNJALAAsreRiCzNSzxSo01SCOuLZkSruQNwDIGBAtp0gQ6pHgABbT01waSsL59FQ135q61Vc7WlKRrtnVr1egDK7jaEBAAL0EIin/lLMiLN+rmghONUCAiE9aWzCEpfgjJlD+ymbRfokOoBENDWU1xIWX/+ipYaBEi/qrn5zl9Ubk8TAKzAzAAA0tWJXyEhNdr0TgBC0r4fEHHpT1ywCZu2XEGHNDk4Ato6/tinP1a7VA1FW9nQWm1oSnm+87/dMRMALGDmc6UacZKHhP4kJant6h/MqYROvj/RwW5VSBYokeqDI6Ct44v9+eKUTdBSNrXVxZb6S2pdbad2H5yuu3Y/AcBKeCGZwmEk6qHtvoSs0esUsVPWhwBhR22rTZOOi4C2jv/14X/X7ICGuuCqjGw1131si/5mW4dAAoB1OG1u5YuAfK9qQFDz18ifuscI1Gbj5sBDIxD/eox/gTOax498+34UumhdzaOd2fZFIAHAvvi+v0DYfh7oCy2tI0SQHidIFWso4KpwZzrk9B0goK0rB5Lfx/d8FOriB5zJM7nzUwPVRO2AZvruVQeUGbYLCQAeYFpuSUls7wi4n3Qf4bkFVyjgpPAAOuQST0ZAW9/CkbTd7qdO7kz8Ly8vH1roql9sqzbmNv5jnCQBwM4415dTiHaNhI18JX/S7QLzVeyggJPCznTI6TtAQFt/lTc5ftlnmeQNAMSLuwI1EFAL0UbyblU7LUt6XwQSANwXz8mz+YIKUS15HUHiu590WVD2wAijOSlMGjCFQyGgrffgUs556cOu6knNixHBQdVAtNGVv5o5FPE6HEwCgAcaRXJzSe8E6AxJL4XjkXhgDyeFB9Ihl3oSAtr6kRzLtf76t+8E1Pei0EK3qpGWJd0PgQQA+2H7fmZvY7URLX+/ur01FpF4ThCAoZwUdqZDTt8BAto6/vYYf3OlP7XoQQP9W/5SQ61UOy1Pen8EEgDcH9NPZ6xRbSU1QhQReowIXcMZgzkpfDJeCoZDQFtf40Tq7uOX7W1/ggAXPthBW0Cyqo1VM4cjYEcDSgDwZGPoAAoODkLEXKNlb5vRxnJTj0u6XbCeTIFc/kkIxGe2+0zFTi0ypa7VrFbTMLna9yTz57L83zVB4fkI6Ag6lREyL8j4kgzPzMzjTLStDuexSW8XNRigDZ7PhvRgbwS0dXzldl9pMVOD1CQ0yuf7Vb/UNI5n0wZ72zrnv45AAoDr+Oxe69+r9vaXzoOj6FzeRiM1sjYYaB0y+7eLGkaOIO1O9W4uoK3jK7f7yhRmahHaVLWKtmoYebSNTa1T+7ohxgk7kgCgA6P7vEuHINWpcByc6ufPn3lf4H/3EaxWxKCAk0IHdEgXdkZAW7c8yP59/AutMhAAU7SsahvmVfN2NnVOv4BAAoAFgPaurt++ci3fgCWP89QI2n2dq95Wi3htFy+wdlLY2945//MR0Nbxme0+I3ZqEJo0pVW0c6vaRgBQ922T9LEI/LPOY6+bqzUI4BBGyQiUfwfbyd5nbDhUzeuISbeLGaZwUmjMkt0BEdDW8ZntPtNiVzXJPNrFhpaJORqX1X8/TpUAoANbVIeoUbHlOluNsg0MrCDkGUoAAAuqSURBVEu6XcyggALVAR3ShZ0R0Nbxme0+U7FTi7gDYJ56NjWM/JS27WzqnH4BgQQACwA9qhpHUZh8Saa9Nk5ldN3mq0Mmf5uwgbPYt5hnfzwEtHX85DY/mcJrSo+mGKOmgX0NCqbapuxxCCQAeBzWm65Uo2ZOgBO2z9qqY+KQfing87lan/xn0dtkmBx0eATiC599ocVEDUFT6mTftlOTKila7ap1yfeBQAKAPuyw2Iu3t7eLW2g4oM5JinPqhNTVrwhaZ83+pfABvqvCRUOkweER0Nbxg0s/mMOjagkag9ZU7eE4NyZ9tCrbMRD4Z7lj9Pd0veTWmbfPGDwv1PiCYHVYn73hrPzY10lru+Q/ix64OimcjmAnHLC2ji989oUWEzQELVFXqFdrbNvqEvutbp2QZocYcgKAQ5jp8gUauoyIGRjgiDVKr3mdNOm82InnQaiQbn4RgQQA874wpxNVU8xjBjRIPDVLbv2LRP9pAoDObcQLM740g2PVfbv++vr6/m7Ay8vLe4qD1scBc06d8r9CCI6tiIlt0vEQ0Nbh/7pAAC1x0ldj0Jy6qUtO/u7XNsn3h0ACgP5sctEjxcrVvpX+zYD6X2kaCCBs3raLyC2LHJiKs/gmHRcBbR3fWPYNJv56y79O/GqPWiRj1CpxtjxpfwgkAOjPJhc90ol0KpzNMu8McMCfP38+jrv2tm5E77PoAZyYfoCYzLAIaOv4wmdfmMMETXGrWqMGgamBgFolzh6XtD8EEgD0Z5NPPfKlP52NBtUJW0ez3Zwzp/xS+MCzxfCTEVIwDALaOn5w6QdzeGB4NUUSiCH7VYtsp2bZPmmfCCQA6NMud+sVTt3eEXC/3tqjnc/5qOfX1s8JxNHL7wZ2TnQoBI7O2zX9x4f1Z9rr4x6rj6sJlrt/KIOmszcjkADgZsiOdwC35HDsb9++vafk6yeCikItUwjOkGLRuqI5noXT41sQ0NZn4HY7Rn1cn6feMvJqhLfxb8E1bY+HQAKA49lsU4/9+wH16wAc3xWAaa3n/+9uBWTEfQB1UtgEbg46FALaekQut2OqPqxv6+ukdfKnXp04lEHT2c0IJADYDN1xDqzP6HxztwoFQqAocOtPoahtRs5jSSeF41g1Pd2KgLYemdPt2PBpb+tXf7cdWKoN5KtmbMU5x/WPQAKA/m30pR4idv48kbf36mSPKDjxexuwrg4UihFTcHFSEKOk4yKgrUfkcjsmfVifxscN9g0KsLSaQF69EKdxmZCRJQA4CQdwcJ3c1Dd2W9EgMHC10NaNuK/onYQKpx+mE9uIXJ4a05w/QwQ1QE2oOnF6opwAgAQAgxvZb3Mdpn9HABHE+X///m3V+/P+79+/v6eIhv+r4JSojFQGAE4KH2AkMywC2nokDs+Npf4vfvq2hsX30QDw4DelFbZNOiYCCQDGtOvFqHBu/0QnFQqgjVwF8AIQdfXFoTlhGal8ChOxSToeAvJ/JA4vjQWfZtx+n6/Pa10xYR+tqPu2SToeAgkAxrPpzSOqDq8w+OwQYfFOQP10iHKfJSo+1nvLsa23XW/pzYDlgCEQ6I2HU/3Bh/Qn6vUx27Y+Zr0+Szt8mU3fZnKvC4IhjJlBbEIgAcAm2MY5SFEwdZWgSBgImCIovlCEMFVRqm0UqCOkWDMrnnE4vTQSbX0EbrZ91Mec6PVBfZL2tiE1uPfuHtjo66ZLeKV+XAQSAIxr21UjQwzr5z8c1AoDnwT5hYCC5ArDFYhpbXeURwmM2UlhFWhpdGgEtLVc7jmtPqRv6Wum+qLjoF37GV/r0/i8OBzamOn8lxBIAPAl+MY5mBeAaiDgC0GKhPuIjELkKgQhUoxYkVivIPWeYkXHOY5FM5I5BLR177ys/cOnXO1Xf9MH9TnGrK86Tvepw8fr/hxGKT8HAgkAzmHn2VG6MlAsaOiLQpTVW4eehNWF4qTwIErmvR3prUjb9poyrjp+x5l0TAS0da98rP3Sh/QpfMxgW3+jfbvib31Xn65c1/fHtHJGtQaBBABrUBq8jeKBaPg9MEOuAsGqQeFs4aiCRZ6ViquVtq7HfcYzN7Z2rNk/PgLaukcuTvVpzp+mLMHY6gq/+jC+7dj1+alzpOw8CCQAOI+tJ0fq28CmNEIoEI5WTKijnNWE7Uf4OwKMS2GcBCmFQyGgracm297KeL5vMD31HT+GwRfxyTrZU27QTnkN7PVd06GMm8HchEACgJvgGq+xYsjIzHu7UNFAQBQXRYN921vHcZTVF5d6E9Sp/tSxj2fhjKhFQN5OcaHXMnyKfuub+hxl5qtvWqYPe5xjD+dbVpxzPwHAOe1+t1ErNJ4QwVFsXLn4zJJ98wit9TVfy6oY+7IT9XNtavs2X69L3uennIuNPiuWjqUdm+VJx0EAnsiFypmpslrf5isv5epUG8oqf2seXrovX9lnCz/H4VxPI0kA0JM1DtoXVhWsPtoJ1OG0oqe48oKTgmdKWwRUASTl5zHUm28/f6Ku/XkeRdmXqmhHvt0YA2OpK6W2TfbHQUC+yA9us7ecsc1UKgflJG3Iy1v2yXt+9uU6qXysx1s/hXL4OYVKyrYikABgK3I5bhIBX0CqnxQiWvwUS0Tw5eXl448IKX6KIfW+9awYesxUW+qu/RR023BuBZlB2Ff7PjmwFA6JgBN15Zk8WZvKW7gprznWc8plympbOViPwUf0FwEPP0Ui6b0RSABwb0RPdj5vkyNa5l09k1oGLLRh43ZmFUNfbqLMCZ68EzcCWYMHj1Vg2Z/7cQ7bKbju+1yVPtln+ms/a9/fO55/hkRArsk9+MGkLf/muEU5bZ3UbQdXndTrOTw/7eS8x/rYTO4BNPyTl6bh55AUfNqgEgA8DfoxLowgKV6KFCvp+nWALyfV55isapxgFU7EEkFUNBFXJ+vaxnpT65ZSBdhz+ikUfXX17xjoq/0bw1IZxRQC2LvyRo5QVvO1Tc3LQVLz1lf+Ule5TRs2OOYKn8lfX9JnaBN+TlkuZfdAIAHAPVA8+TkULQSsTvyIqxOqgkYb88BWJ1knZsTR1Tp5vypo7wIotNdSRdmVFinC7mb/2KfvrsAck+2Sjo1A5RB8kze1fE1ejspZjqlchuNulfv4hNzTP6r/cEz4KXJJ74VAAoB7IXnS87hyVryAgTzi5k9BEyKFTQGknnw9RxXNKrxM3tTVYKHWT+UV47qi41r0wz7Wa5t3bPY76XgIVG4y6TvxGzBO8aktg4twsvKrtqHODW7BOa9LXn+wDak+EX5WVJK/NwIJAO6N6EnPp5AxfMVNKKhjI/V2J/sIX03Ju/J2EqYNYurKvQqrYl3L2rxCrjiTet33i//3j32mzv7W+uTHRkBOyLU13KJt2w5+yTnPKZflNkhaZ0pZfSzWcjD8HJt/zxpdAoBnIZ/rrkIAIeSHUNZJ3Ime1de1n+1I2arg1vyqzqTRcAhUDpivnLnGLepsW7nJeeTtcIBlQEMhkABgKHOOOxgElZWU4orwzj0mUJRNQcXjXI1xvmxBAATkAtwgPxUIyKU2lYMe5zmCbBA4AgIJAI5gpRP3UTFWpIHi7e3tHREn82vweJznoW3NXzs2dedBoHLCvNy5hoIclJO09TjPc+341AWBZyKQAOCZ6OfaiwjU56a18doX9BRoj60rtLlz2zbp+AjIASbtKa6sQWCOi557zTnSJgg8A4EEAM9APde8CQHE+fX19eIYxZVV1rUfB3H8r1+/Lo7PThCYQwCu1FX8Er/koueDqx5vWdIg0CMCCQB6tEr69IFAuyrzbeiPBisyijGpq7Ut51lxqTQ5IAJyAW5Urtw6FM/jcS13LU8aBHpBIAFAL5ZIP64i4CqriiqCe211Rp3H8YmVecrZ6rmuXjyVwyIgB+QEHPFTVfJL/KqTvueSZ8OCloENg0ACgGFMOe5AXJUpsIxUkV4zalf9tPUcpmuOT5uxEZALpoy2cmZp9JWLnkPOLh2b+iDwTAT+D5ePM+8CS24NAAAAAElFTkSuQmCC;labelPosition=center;align=center;" parent="1" vertex="1">
          <mxGeometry x="62.25" y="170" width="72" height="72" as="geometry" />
        </mxCell>
        <mxCell id="17F5Kk3aHDw3mL9hK2ya-17" value="" style="edgeStyle=orthogonalEdgeStyle;rounded=0;orthogonalLoop=1;jettySize=auto;html=1;" parent="1" source="17F5Kk3aHDw3mL9hK2ya-4" target="17F5Kk3aHDw3mL9hK2ya-5" edge="1">
          <mxGeometry relative="1" as="geometry" />
        </mxCell>
        <mxCell id="17F5Kk3aHDw3mL9hK2ya-4" value="Glue Crawler" style="sketch=0;outlineConnect=0;fontColor=#232F3E;gradientColor=none;fillColor=#8C4FFF;strokeColor=none;dashed=0;verticalLabelPosition=bottom;verticalAlign=top;align=center;html=1;fontSize=12;fontStyle=0;aspect=fixed;pointerEvents=1;shape=mxgraph.aws4.glue_crawlers;" parent="1" vertex="1">
          <mxGeometry x="320" y="327.5" width="78" height="78" as="geometry" />
        </mxCell>
        <mxCell id="17F5Kk3aHDw3mL9hK2ya-18" value="" style="edgeStyle=orthogonalEdgeStyle;rounded=0;orthogonalLoop=1;jettySize=auto;html=1;" parent="1" source="17F5Kk3aHDw3mL9hK2ya-5" target="17F5Kk3aHDw3mL9hK2ya-6" edge="1">
          <mxGeometry relative="1" as="geometry" />
        </mxCell>
        <mxCell id="17F5Kk3aHDw3mL9hK2ya-5" value="Glue Data Catalog" style="sketch=0;outlineConnect=0;fontColor=#232F3E;gradientColor=none;fillColor=#8C4FFF;strokeColor=none;dashed=0;verticalLabelPosition=bottom;verticalAlign=top;align=center;html=1;fontSize=12;fontStyle=0;aspect=fixed;pointerEvents=1;shape=mxgraph.aws4.glue_data_catalog;" parent="1" vertex="1">
          <mxGeometry x="460" y="327.5" width="72" height="78" as="geometry" />
        </mxCell>
        <mxCell id="17F5Kk3aHDw3mL9hK2ya-19" value="" style="edgeStyle=orthogonalEdgeStyle;rounded=0;orthogonalLoop=1;jettySize=auto;html=1;" parent="1" source="17F5Kk3aHDw3mL9hK2ya-6" target="17F5Kk3aHDw3mL9hK2ya-7" edge="1">
          <mxGeometry relative="1" as="geometry" />
        </mxCell>
        <mxCell id="17F5Kk3aHDw3mL9hK2ya-6" value="Athena" style="sketch=0;points=[[0,0,0],[0.25,0,0],[0.5,0,0],[0.75,0,0],[1,0,0],[0,1,0],[0.25,1,0],[0.5,1,0],[0.75,1,0],[1,1,0],[0,0.25,0],[0,0.5,0],[0,0.75,0],[1,0.25,0],[1,0.5,0],[1,0.75,0]];outlineConnect=0;fontColor=#232F3E;fillColor=#8C4FFF;strokeColor=#ffffff;dashed=0;verticalLabelPosition=bottom;verticalAlign=top;align=center;html=1;fontSize=12;fontStyle=0;aspect=fixed;shape=mxgraph.aws4.resourceIcon;resIcon=mxgraph.aws4.athena;" parent="1" vertex="1">
          <mxGeometry x="590" y="327.5" width="78" height="78" as="geometry" />
        </mxCell>
        <mxCell id="17F5Kk3aHDw3mL9hK2ya-22" value="" style="edgeStyle=orthogonalEdgeStyle;rounded=0;orthogonalLoop=1;jettySize=auto;html=1;entryX=0;entryY=0.5;entryDx=0;entryDy=0;entryPerimeter=0;" parent="1" source="17F5Kk3aHDw3mL9hK2ya-7" target="17F5Kk3aHDw3mL9hK2ya-9" edge="1">
          <mxGeometry relative="1" as="geometry">
            <mxPoint x="756" y="247.5" as="targetPoint" />
            <Array as="points">
              <mxPoint x="830" y="367" />
              <mxPoint x="830" y="269" />
            </Array>
          </mxGeometry>
        </mxCell>
        <mxCell id="XDj9IkW_zpxHgVdM3mP6-2" value="" style="edgeStyle=orthogonalEdgeStyle;rounded=0;orthogonalLoop=1;jettySize=auto;html=1;entryX=0;entryY=0.5;entryDx=0;entryDy=0;entryPerimeter=0;" edge="1" parent="1" source="17F5Kk3aHDw3mL9hK2ya-7" target="XDj9IkW_zpxHgVdM3mP6-3">
          <mxGeometry relative="1" as="geometry">
            <mxPoint x="756" y="485.5" as="targetPoint" />
            <Array as="points">
              <mxPoint x="830" y="367" />
              <mxPoint x="830" y="439" />
            </Array>
          </mxGeometry>
        </mxCell>
        <mxCell id="17F5Kk3aHDw3mL9hK2ya-7" value="Glue Data Catalog" style="sketch=0;outlineConnect=0;fontColor=#232F3E;gradientColor=none;fillColor=#8C4FFF;strokeColor=none;dashed=0;verticalLabelPosition=bottom;verticalAlign=top;align=center;html=1;fontSize=12;fontStyle=0;aspect=fixed;pointerEvents=1;shape=mxgraph.aws4.glue_data_catalog;" parent="1" vertex="1">
          <mxGeometry x="720" y="327.5" width="72" height="78" as="geometry" />
        </mxCell>
        <mxCell id="17F5Kk3aHDw3mL9hK2ya-9" value="QuickSight" style="sketch=0;points=[[0,0,0],[0.25,0,0],[0.5,0,0],[0.75,0,0],[1,0,0],[0,1,0],[0.25,1,0],[0.5,1,0],[0.75,1,0],[1,1,0],[0,0.25,0],[0,0.5,0],[0,0.75,0],[1,0.25,0],[1,0.5,0],[1,0.75,0]];outlineConnect=0;fontColor=#232F3E;fillColor=#8C4FFF;strokeColor=#ffffff;dashed=0;verticalLabelPosition=bottom;verticalAlign=top;align=center;html=1;fontSize=12;fontStyle=0;aspect=fixed;shape=mxgraph.aws4.resourceIcon;resIcon=mxgraph.aws4.quicksight;" parent="1" vertex="1">
          <mxGeometry x="880" y="230" width="78" height="78" as="geometry" />
        </mxCell>
        <mxCell id="17F5Kk3aHDw3mL9hK2ya-12" value="" style="edgeStyle=orthogonalEdgeStyle;rounded=0;orthogonalLoop=1;jettySize=auto;html=1;" parent="1" source="17F5Kk3aHDw3mL9hK2ya-11" target="17F5Kk3aHDw3mL9hK2ya-1" edge="1">
          <mxGeometry relative="1" as="geometry" />
        </mxCell>
        <mxCell id="17F5Kk3aHDw3mL9hK2ya-11" value="" style="sketch=0;html=1;aspect=fixed;strokeColor=none;shadow=0;fillColor=#3B8DF1;verticalAlign=top;labelPosition=center;verticalLabelPosition=bottom;shape=mxgraph.gcp2.play_start" parent="1" vertex="1">
          <mxGeometry x="-90" y="316.5" width="100" height="100" as="geometry" />
        </mxCell>
        <mxCell id="17F5Kk3aHDw3mL9hK2ya-14" value="Download dataset" style="text;html=1;strokeColor=none;fillColor=none;align=center;verticalAlign=middle;whiteSpace=wrap;rounded=0;" parent="1" vertex="1">
          <mxGeometry x="100" y="260" width="60" height="30" as="geometry" />
        </mxCell>
        <mxCell id="XDj9IkW_zpxHgVdM3mP6-3" value="" style="sketch=0;points=[[0,0,0],[0.25,0,0],[0.5,0,0],[0.75,0,0],[1,0,0],[0,1,0],[0.25,1,0],[0.5,1,0],[0.75,1,0],[1,1,0],[0,0.25,0],[0,0.5,0],[0,0.75,0],[1,0.25,0],[1,0.5,0],[1,0.75,0]];outlineConnect=0;fontColor=#232F3E;fillColor=#01A88D;strokeColor=#ffffff;dashed=0;verticalLabelPosition=bottom;verticalAlign=top;align=center;html=1;fontSize=12;fontStyle=0;aspect=fixed;shape=mxgraph.aws4.resourceIcon;resIcon=mxgraph.aws4.sagemaker;" vertex="1" parent="1">
          <mxGeometry x="880" y="400" width="78" height="78" as="geometry" />
        </mxCell>
      </root>
    </mxGraphModel>
  </diagram>
</mxfile>
